<?xml version="1.0" encoding="utf-8"?>
<!-- Generator: Adobe Illustrator 24.1.1, SVG Export Plug-In . SVG Version: 6.00 Build 0)  -->
<svg version="1.1" id="Layer_1" xmlns="http://www.w3.org/2000/svg" xmlns:xlink="http://www.w3.org/1999/xlink" x="0px" y="0px"
	 viewBox="0 0 18 18" style="enable-background:new 0 0 18 18;" xml:space="preserve">
<style type="text/css">
	.st0{fill:#676767;}
</style>
<path class="st0" d="M17.1,17.6h-6.4c-0.4,0-0.8-0.3-0.8-0.8s0.3-0.8,0.8-0.8h6.4c0.4,0,0.8,0.3,0.8,0.8S17.5,17.6,17.1,17.6z"/>
<path class="st0" d="M2,17.6c-0.3,0-0.7-0.2-0.7-0.6L0.6,14c-0.2-0.7,0-1.3,0.4-1.9L9.3,1.5c0,0,0,0,0,0c0.9-1.2,2.6-1.3,3.9-0.3
	l1.4,1.1c1.3,1,1.6,2.7,0.7,3.9L7,16.8c-0.4,0.5-1.1,0.8-1.7,0.9L2,17.6C2,17.6,2,17.6,2,17.6z M10.4,2.4L2.2,13
	C2,13.2,2,13.4,2,13.6l0.6,2.5l2.6,0c0.2,0,0.4-0.1,0.6-0.3l8.3-10.6c0.5-0.7,0.1-1.3-0.4-1.8l-1.4-1.1C11.7,2,11,1.8,10.4,2.4
	L10.4,2.4z"/>
<path class="st0" d="M13.1,8.4c-0.2,0-0.3-0.1-0.5-0.2L7.8,4.5C7.5,4.3,7.5,3.8,7.7,3.5C8,3.1,8.4,3.1,8.8,3.3l4.8,3.8
	c0.3,0.3,0.4,0.7,0.1,1.1C13.5,8.3,13.3,8.4,13.1,8.4z"/>
</svg>
