<svg width="40" height="38" viewBox="0 0 40 38" fill="none" xmlns="http://www.w3.org/2000/svg">
<path d="M30.625 31.75H9.37336C4.20492 31.75 0 27.5451 0 22.3766V9.5625C0 4.39313 4.20563 0.1875 9.375 0.1875H16.4062C17.2692 0.1875 17.9688 0.887031 17.9688 1.75C17.9688 2.61297 17.2692 3.3125 16.4062 3.3125H9.375C5.92875 3.3125 3.125 6.11625 3.125 9.5625V22.3766C3.125 25.822 5.92805 28.625 9.37336 28.625H30.625C34.0713 28.625 36.875 25.8213 36.875 22.375V20.2656C36.875 19.4027 37.5745 18.7031 38.4375 18.7031C39.3005 18.7031 40 19.4027 40 20.2656V22.375C40 27.5444 35.7944 31.75 30.625 31.75ZM29.0625 36.4375C29.0625 35.5745 28.363 34.875 27.5 34.875H12.5C11.637 34.875 10.9375 35.5745 10.9375 36.4375C10.9375 37.3005 11.637 38 12.5 38H27.5C28.363 38 29.0625 37.3005 29.0625 36.4375Z" fill="white"/>
<path d="M30.9941 16.6632C29.9459 16.6633 28.8981 16.3359 28.0234 15.6809C24.4143 12.9784 22.4699 9.74165 22.4007 6.32049C22.4005 6.30994 22.4004 6.2994 22.4004 6.28893C22.4004 3.48284 24.6784 1.19995 27.4785 1.19995C28.8416 1.19995 30.0811 1.73979 30.9941 2.61698C31.9072 1.73979 33.1466 1.19995 34.5097 1.19995C37.3098 1.19995 39.5879 3.48284 39.5879 6.28885C39.5879 6.29939 39.5878 6.30994 39.5875 6.32041C39.5183 9.74158 37.574 12.9784 33.9647 15.6809C33.0904 16.3356 32.0421 16.6631 30.9941 16.6632ZM25.5255 6.27439C25.5959 9.32837 27.9401 11.7145 29.8965 13.1794C30.5428 13.6634 31.4455 13.6632 32.0917 13.1795C34.0481 11.7145 36.3924 9.32837 36.4628 6.27439C36.4551 5.19815 35.5819 4.32495 34.5097 4.32495C33.4328 4.32495 32.5566 5.20112 32.5566 6.27807C32.5566 7.14103 31.8571 7.84056 30.9941 7.84056C30.1312 7.84056 29.4316 7.14103 29.4316 6.27807C29.4316 5.20112 28.5555 4.32495 27.4785 4.32495C26.4064 4.32495 25.5332 5.19815 25.5255 6.27439Z" fill="white"/>
</svg>
