<svg width="42" height="50" viewBox="0 0 42 50" fill="none" xmlns="http://www.w3.org/2000/svg">
<path d="M29.7402 50H12.2598C5.79805 50 0.541016 44.743 0.541016 38.2812V11.7188C0.541016 5.25703 5.79805 0 12.2598 0H29.7402C36.202 0 41.459 5.25703 41.459 11.7188V38.2812C41.459 44.743 36.202 50 29.7402 50ZM12.2598 3.90625C7.95195 3.90625 4.44727 7.41094 4.44727 11.7188V38.2812C4.44727 42.5891 7.95195 46.0938 12.2598 46.0938H29.7402C34.048 46.0938 37.5527 42.5891 37.5527 38.2812V11.7188C37.5527 7.41094 34.048 3.90625 29.7402 3.90625H12.2598ZM23.5879 39.2578C23.5879 40.6062 22.4948 41.6992 21.1465 41.6992C19.7981 41.6992 18.7051 40.6062 18.7051 39.2578C18.7051 37.9095 19.7981 36.8164 21.1465 36.8164C22.4948 36.8164 23.5879 37.9095 23.5879 39.2578ZM26.7129 29.1992V18.6523C26.7129 17.5736 25.8385 16.6992 24.7598 16.6992C23.6811 16.6992 22.8066 17.5736 22.8066 18.6523V29.1992C22.8066 30.2779 23.6811 31.1523 24.7598 31.1523C25.8385 31.1523 26.7129 30.2779 26.7129 29.1992ZM33.7441 29.1992V24.5117C33.7441 23.433 32.8697 22.5586 31.791 22.5586C30.7123 22.5586 29.8379 23.433 29.8379 24.5117V29.1992C29.8379 30.2779 30.7123 31.1523 31.791 31.1523C32.8697 31.1523 33.7441 30.2779 33.7441 29.1992ZM12.3574 29.2969V21.6797C12.3574 20.601 11.483 19.7266 10.4043 19.7266C9.32559 19.7266 8.45117 20.601 8.45117 21.6797V29.2969C8.45117 30.3756 9.32559 31.25 10.4043 31.25C11.483 31.25 12.3574 30.3756 12.3574 29.2969ZM19.584 29.2969V12.8906C19.584 11.8119 18.7096 10.9375 17.6309 10.9375C16.5521 10.9375 15.6777 11.8119 15.6777 12.8906V29.2969C15.6777 30.3756 16.5521 31.25 17.6309 31.25C18.7096 31.25 19.584 30.3756 19.584 29.2969Z" fill="white"/>
</svg>
