<svg xmlns="http://www.w3.org/2000/svg" viewBox="0 0 17.53 15.76"><defs><style>.cls-1{fill:#8a8a8a;}</style></defs><g id="Layer_2" data-name="Layer 2"><g id="Layer_1-2" data-name="Layer 1"><path class="cls-1" d="M8.1,7.66,4.51,4.8,3.58,6,7.16,8.83Zm1.36,0a1.13,1.13,0,0,1-1.37,0L7.17,8.84a2.6,2.6,0,0,0,3.21,0ZM13,4.8,9.45,7.66l.94,1.17L13.94,6Zm-8.49,0A.75.75,0,0,0,3.58,6ZM7.63,8.25l-.47.58h0Zm2.29,0,.46.59h0Zm4-2.28a.75.75,0,0,0,.12-1.06A.76.76,0,0,0,13,4.8Z"/><path class="cls-1" d="M1.5,5.16A3.39,3.39,0,0,1,4.82,1.5V0A4.89,4.89,0,0,0,0,5.16Zm0,5.44V5.16H0V10.6Zm3.32,3.66A3.39,3.39,0,0,1,1.5,10.6H0a4.88,4.88,0,0,0,4.82,5.16Zm7.86,0H4.82v1.5h7.86Zm2.43-1.08a3.37,3.37,0,0,1-2.44,1.08l0,1.5a4.86,4.86,0,0,0,3.52-1.56ZM16,10.65a3.42,3.42,0,0,1-.91,2.53l1.1,1a4.91,4.91,0,0,0,1.31-3.64Zm0-5.49V10.6h1.5V5.16Zm-.91-2.58A3.44,3.44,0,0,1,16,5.12l1.5.09a4.88,4.88,0,0,0-1.31-3.64ZM12.67,1.5a3.37,3.37,0,0,1,2.44,1.08l1.1-1A4.87,4.87,0,0,0,12.69,0Zm-7.85,0h7.86V0H4.82ZM12.68,15v.75h0Zm4.09-4.41H16v.05Zm0-5.44-.75,0v0ZM15.66,2.08l.55-.51h0Zm-3-1.33V0h0Z"/></g></g></svg>