<svg width="29" height="29" viewBox="0 0 29 29" fill="none" xmlns="http://www.w3.org/2000/svg">
<g clip-path="url(#clip0)">
<path d="M28.4955 21.4996C27.7607 20.0882 26.0974 19.4929 24.5405 20.0835C23.4547 20.4956 22.127 20.9994 20.6819 21.3979C20.8153 20.7562 20.7488 20.0767 20.4822 19.4306C20.0936 18.4887 19.295 17.7879 18.2911 17.5079C17.7777 17.3648 17.2207 17.3326 16.6354 17.4122C12.7744 17.9373 10.4753 16.6317 8.44674 15.4798C7.08341 14.7055 5.79564 13.9742 4.28811 13.9742C2.45174 13.9742 0.796024 14.5891 0.796024 14.5891C0.202007 14.775 -0.12881 15.4073 0.0571372 16.0013C0.243028 16.5953 0.875362 16.9259 1.46927 16.7402C1.46927 16.7402 2.79276 16.2281 4.28811 16.2281C5.20027 16.2281 6.14178 16.7627 7.33376 17.4397C9.11863 18.4533 11.4621 19.7844 14.9457 19.7843C15.572 19.7843 16.2357 19.7412 16.9392 19.6455C17.2145 19.6081 17.4727 19.6196 17.6856 19.679C17.9232 19.7452 18.2397 19.9051 18.3986 20.2903C18.5219 20.589 18.5281 20.8686 18.417 21.1211C18.2806 21.431 17.9699 21.6878 17.5423 21.8441C16.9262 22.0694 16.0474 22.1896 15.0505 22.201C13.9784 22.2077 12.932 22.0852 12.0125 21.8436C11.4105 21.6852 10.7942 22.0451 10.6361 22.6471C10.4778 23.249 10.8376 23.8653 11.4396 24.0234C12.5168 24.3065 13.8201 24.4554 15.0505 24.4554V24.454C19.3349 24.4357 23.0027 23.078 25.3402 22.1907C25.7319 22.0422 26.2521 22.0651 26.5064 22.56C26.7179 22.9661 26.5622 23.4716 26.1595 23.6867C23.3311 25.1978 20.049 26.5961 15.2259 26.5961C10.9323 26.5961 6.97736 24.9392 4.41569 23.5493C2.60202 22.5651 1.23813 22.771 0.906466 22.8436C0.90562 22.8437 0.00569182 22.9768 0.00569182 23.9477C0.00569182 24.5702 0.510229 25.0747 1.13265 25.0747C1.23311 25.0747 1.42289 25.0367 1.42289 25.0367C1.42289 25.0367 2.1722 24.8963 3.34074 25.5303C6.13187 27.0447 10.4595 28.85 15.2259 28.85C21.2781 28.85 25.2924 26.7053 27.2215 25.6747C28.7088 24.8802 29.2743 22.9957 28.4955 21.4996Z" fill="white"/>
<path d="M16.2959 12.5954C15.5399 12.5954 14.7841 12.3593 14.1533 11.8869C11.5502 9.93774 10.1478 7.60321 10.0979 5.13569C10.0977 5.12809 10.0977 5.12048 10.0977 5.11293C10.0977 3.08904 11.7407 1.4425 13.7602 1.4425C14.7434 1.4425 15.6374 1.83187 16.2959 2.46454C16.9545 1.83187 17.8484 1.4425 18.8315 1.4425C20.8511 1.4425 22.4941 3.08904 22.4941 5.11287C22.4941 5.12048 22.4941 5.12809 22.4939 5.13564C22.444 7.60315 21.0416 9.93774 18.4384 11.8869C17.8078 12.3591 17.0517 12.5953 16.2959 12.5954ZM12.3516 5.10245C12.4024 7.30513 14.0932 9.02615 15.5042 10.0827C15.9704 10.4317 16.6214 10.4316 17.0875 10.0827C18.4986 9.02615 20.1894 7.30513 20.2402 5.10245C20.2346 4.3262 19.6048 3.69641 18.8315 3.69641C18.0548 3.69641 17.4228 4.32834 17.4228 5.1051C17.4228 5.72751 16.9183 6.23205 16.2959 6.23205C15.6735 6.23205 15.1689 5.72751 15.1689 5.1051C15.1689 4.32834 14.537 3.69641 13.7602 3.69641C12.987 3.69641 12.3572 4.3262 12.3516 5.10245Z" fill="white"/>
</g>
<defs>
<clipPath id="clip0">
<rect width="28.85" height="28.85" fill="white"/>
</clipPath>
</defs>
</svg>
