<svg xmlns="http://www.w3.org/2000/svg" viewBox="0 0 12.9 22.73"><defs><style>.cls-1{fill:#fff;}</style></defs><g id="Layer_2" data-name="Layer 2"><g id="Layer_1-2" data-name="Layer 1"><path class="cls-1" d="M11.8,1.34ZM4.56,21.39H7.74V12.82a.74.74,0,0,1,.73-.74h3V9h-3a.74.74,0,0,1-.73-.74v-2a2.29,2.29,0,0,1,.44-1.56,2.31,2.31,0,0,1,1.75-.6h1.64V1.34H9c-2.75,0-4.46,1.76-4.46,4.6V8.29A.74.74,0,0,1,3.82,9H1.33v3.05H3.82a.74.74,0,0,1,.74.74ZM8,22.73H4.33a1.11,1.11,0,0,1-1.1-1.11v-8.2H1.1A1.11,1.11,0,0,1,0,12.31V8.8A1.11,1.11,0,0,1,1.1,7.69H3.23V5.93a6,6,0,0,1,1.58-4.3A5.74,5.74,0,0,1,9,0H11.8a1.11,1.11,0,0,1,1.1,1.11V4.37a1.11,1.11,0,0,1-1.1,1.11H9.93c-.57,0-.72.11-.75.15s-.11.22-.11.67V7.69h2.59A1.11,1.11,0,0,1,12.77,8.8v3.51a1.11,1.11,0,0,1-1.1,1.11H9.07v8.2A1.11,1.11,0,0,1,8,22.73Z"/></g></g></svg>