<svg xmlns="http://www.w3.org/2000/svg" viewBox="0 0 23.04 23.04"><defs><style>.cls-1{fill:#fff;}</style></defs><g id="Layer_2" data-name="Layer 2"><g id="Layer_1-2" data-name="Layer 1"><path class="cls-1" d="M21.39,6.31V16.73h.31V6.31ZM16.73,1.64a4.67,4.67,0,0,1,4.66,4.67h.31a5,5,0,0,0-5-5Zm-10.42,0H16.73V1.33H6.31ZM1.64,6.31A4.67,4.67,0,0,1,6.31,1.64V1.33a5,5,0,0,0-5,5Zm0,10.42V6.31H1.33V16.73Zm4.67,4.66a4.67,4.67,0,0,1-4.67-4.66H1.33a5,5,0,0,0,5,5Zm10.42,0H6.31v.31H16.73Zm4.66-4.66a4.66,4.66,0,0,1-4.66,4.66v.31a5,5,0,0,0,5-5ZM16.88.15ZM23,6.31A6.32,6.32,0,0,0,16.73,0V.31a6,6,0,0,1,6,6Zm0,10.42V6.31h-.31V16.73ZM16.73,23A6.32,6.32,0,0,0,23,16.73h-.31a6,6,0,0,1-6,6ZM6.31,23H16.73v-.31H6.31ZM0,16.73A6.32,6.32,0,0,0,6.31,23v-.31a6,6,0,0,1-6-6ZM0,6.31V16.73H.31V6.31ZM6.31,0A6.32,6.32,0,0,0,0,6.31H.31a6,6,0,0,1,6-6ZM16.73,0H6.31V.31H16.73Zm0,.15h-.15V.31h.15Zm0,0h.15V0h-.15Z"/><path class="cls-1" d="M21.55,16.73a4.82,4.82,0,0,1-4.82,4.82H6.31a4.82,4.82,0,0,1-4.82-4.82V6.31A4.82,4.82,0,0,1,6.31,1.49H16.73a4.82,4.82,0,0,1,4.82,4.82ZM16.73.15H6.31A6.16,6.16,0,0,0,.15,6.31V16.73a6.16,6.16,0,0,0,6.16,6.15H16.73a6.16,6.16,0,0,0,6.15-6.15V6.31A6.16,6.16,0,0,0,16.73.15Z"/><path class="cls-1" d="M16.24,11.52a4.74,4.74,0,0,1-4.72,4.73v.3a5,5,0,0,0,5-5ZM11.52,6.79a4.73,4.73,0,0,1,4.72,4.73h.31a5,5,0,0,0-5-5ZM6.79,11.52a4.73,4.73,0,0,1,4.73-4.73V6.48a5,5,0,0,0-5,5Zm4.73,4.73a4.74,4.74,0,0,1-4.73-4.73H6.48a5,5,0,0,0,5,5Zm6.37-4.73a6.38,6.38,0,0,0-6.37-6.37v.31a6.07,6.07,0,0,1,6.06,6.06Zm-6.37,6.37a6.38,6.38,0,0,0,6.37-6.37h-.31a6.07,6.07,0,0,1-6.06,6.06ZM5.15,11.52a6.38,6.38,0,0,0,6.37,6.37v-.31a6.07,6.07,0,0,1-6.06-6.06Zm6.37-6.37a6.38,6.38,0,0,0-6.37,6.37h.31a6.07,6.07,0,0,1,6.06-6.06Z"/><path class="cls-1" d="M11.52,16.4a4.88,4.88,0,1,1,4.88-4.88A4.9,4.9,0,0,1,11.52,16.4Zm0-11.1a6.22,6.22,0,1,0,6.21,6.22A6.23,6.23,0,0,0,11.52,5.3Z"/><path class="cls-1" d="M17.88,5.44a.51.51,0,0,1,0-1,.51.51,0,1,1,0,1Zm0-2.34a1.84,1.84,0,1,0,1.84,1.83A1.84,1.84,0,0,0,17.88,3.1Z"/></g></g></svg>