<svg xmlns="http://www.w3.org/2000/svg" xmlns:xlink="http://www.w3.org/1999/xlink" viewBox="0 0 33.08 33.08"><defs><style>.cls-1{fill:none;}.cls-2{clip-path:url(#clip-path);}.cls-3{fill:#8a8a8a;}</style><clipPath id="clip-path" transform="translate(1.54 1.54)"><circle class="cls-1" cx="15" cy="15" r="15"/></clipPath></defs><g id="Layer_2" data-name="Layer 2"><g id="Layer_1-2" data-name="Layer 1"><g class="cls-2"><path class="cls-3" d="M15,1.54A13.46,13.46,0,0,1,28.46,15h3.08A16.54,16.54,0,0,0,15-1.54ZM1.54,15A13.46,13.46,0,0,1,15,1.54V-1.54A16.53,16.53,0,0,0-1.54,15ZM15,28.46A13.46,13.46,0,0,1,1.54,15H-1.54A16.54,16.54,0,0,0,15,31.54ZM28.46,15A13.46,13.46,0,0,1,15,28.46v3.08A16.55,16.55,0,0,0,31.54,15Z" transform="translate(1.54 1.54)"/></g><path class="cls-3" d="M21.62,18.44a3.19,3.19,0,0,1-3.18,3.18H11.56a3.19,3.19,0,0,1-3.18-3.18V11.56a3.19,3.19,0,0,1,3.18-3.18h6.88a3.19,3.19,0,0,1,3.18,3.18ZM18.44,7.5H11.56A4.06,4.06,0,0,0,7.5,11.56v6.88a4.06,4.06,0,0,0,4.06,4.06h6.88a4.06,4.06,0,0,0,4.06-4.06V11.56A4.06,4.06,0,0,0,18.44,7.5Z" transform="translate(1.54 1.54)"/><path class="cls-3" d="M15,18.22A3.22,3.22,0,1,1,18.22,15,3.22,3.22,0,0,1,15,18.22Zm0-7.32A4.1,4.1,0,1,0,19.1,15,4.11,4.11,0,0,0,15,10.9Z" transform="translate(1.54 1.54)"/><path class="cls-3" d="M19.2,11a.34.34,0,1,1,.33-.34A.34.34,0,0,1,19.2,11Zm0-1.55a1.22,1.22,0,1,0,1.21,1.21A1.21,1.21,0,0,0,19.2,9.44Z" transform="translate(1.54 1.54)"/></g></g></svg>