<svg width="40" height="40" viewBox="0 0 40 40" fill="none" xmlns="http://www.w3.org/2000/svg">
<path d="M38.9817 32.9672C38.9817 36.1976 36.3536 38.8257 33.1232 38.8257C29.8928 38.8257 27.2646 36.1976 27.2646 32.9672C27.2646 29.7368 29.8928 27.1086 33.1232 27.1086C36.3536 27.1086 38.9817 29.7367 38.9817 32.9672ZM35.8572 32.9672C35.8572 31.4596 34.6307 30.2332 33.1232 30.2332C31.6157 30.2332 30.3892 31.4596 30.3892 32.9672C30.3892 34.4747 31.6157 35.7011 33.1232 35.7011C34.6307 35.7011 35.8572 34.4746 35.8572 32.9672ZM1.25272 7.03336C1.25272 3.80296 3.88087 1.17482 7.11126 1.17482C10.3417 1.17482 12.9698 3.80296 12.9698 7.03336C12.9698 10.2638 10.3417 12.8919 7.11126 12.8919C3.88087 12.8919 1.25272 10.2638 1.25272 7.03336ZM4.37728 7.03336C4.37728 8.54088 5.60375 9.76734 7.11126 9.76734C8.61878 9.76734 9.84525 8.54088 9.84525 7.03336C9.84525 5.52584 8.61878 4.29937 7.11126 4.29937C5.60375 4.29937 4.37728 5.52584 4.37728 7.03336ZM27.1865 7.03336C27.1865 3.80296 29.8147 1.17482 33.0451 1.17482C36.2755 1.17482 38.9036 3.80296 38.9036 7.03336C38.9036 10.2638 36.2755 12.8919 33.0451 12.8919C29.8147 12.8919 27.1865 10.2638 27.1865 7.03336ZM30.3111 7.03336C30.3111 8.54088 31.5375 9.76734 33.0451 9.76734C34.5526 9.76734 35.779 8.54088 35.779 7.03336C35.779 5.52584 34.5526 4.29937 33.0451 4.29937C31.5375 4.29937 30.3111 5.52584 30.3111 7.03336ZM13.0479 32.889C13.0479 36.1194 10.4198 38.7476 7.18938 38.7476C3.95898 38.7476 1.33084 36.1194 1.33084 32.889C1.33084 29.6586 3.95898 27.0305 7.18938 27.0305C10.4198 27.0305 13.0479 29.6586 13.0479 32.889ZM9.92336 32.889C9.92336 31.3815 8.6969 30.1551 7.18938 30.1551C5.68186 30.1551 4.45539 31.3815 4.45539 32.889C4.45539 34.3966 5.68186 35.623 7.18938 35.623C8.6969 35.623 9.92336 34.3965 9.92336 32.889ZM39.5707 15.9256C39.3933 15.0811 38.5649 14.5404 37.7206 14.7178C36.8762 14.8952 36.3355 15.7235 36.5129 16.5679C36.9922 18.8501 36.9958 21.1651 36.5233 23.4488C36.3485 24.2936 36.8917 25.1203 37.7367 25.2951C37.8435 25.3172 37.9498 25.3279 38.0548 25.3279C38.7801 25.3279 39.4304 24.8199 39.583 24.0818C40.1431 21.3747 40.139 18.6306 39.5707 15.9256ZM23.4485 36.5236C21.1648 36.996 18.8497 36.9924 16.5677 36.5131C15.7233 36.3361 14.895 36.8764 14.7177 37.7209C14.5403 38.5653 15.0811 39.3935 15.9254 39.571C17.288 39.8572 18.6601 40.0002 20.0328 40.0002C21.3852 40.0002 22.7381 39.8613 24.0815 39.5833C24.9265 39.4086 25.4697 38.582 25.2949 37.7369C25.1201 36.8921 24.2933 36.3483 23.4485 36.5236ZM16.5516 3.47683C18.8353 3.00456 21.1504 3.00799 23.4324 3.48738C23.5407 3.51011 23.6487 3.52104 23.7551 3.52104C24.4784 3.52097 25.1278 3.01565 25.2824 2.27958C25.4598 1.43517 24.919 0.606928 24.0747 0.429454C21.3696 -0.138669 18.6256 -0.142809 15.9186 0.417112C15.0736 0.591852 14.5304 1.41845 14.7052 2.26349C14.88 3.10845 15.7068 3.65204 16.5516 3.47683ZM2.27945 25.2827C3.12386 25.1053 3.66457 24.277 3.48717 23.4326C3.00779 21.1504 3.00427 18.8354 3.4767 16.5518C3.65152 15.7069 3.10832 14.8802 2.26336 14.7054C1.41786 14.5302 0.591725 15.0739 0.416985 15.9187C-0.143092 18.6257 -0.138952 21.3698 0.429327 24.0749C0.583914 24.8111 1.23327 25.3164 1.95669 25.3164C2.06308 25.3163 2.17119 25.3054 2.27945 25.2827Z" fill="white"/>
</svg>
