<svg width="31" height="30" viewBox="0 0 31 30" fill="none" xmlns="http://www.w3.org/2000/svg">
<circle cx="15.5094" cy="14.9996" r="14.229" stroke="#8A8A8A" stroke-width="1.54116"/>
<path d="M12.5671 11.1148H10.0385C9.71245 11.1148 9.44736 11.3799 9.44736 11.7059V21.2355C9.44736 21.5614 9.71246 21.8265 10.0385 21.8265H12.5671C12.893 21.8265 13.1581 21.5614 13.1581 21.2355V11.7059C13.1581 11.3799 12.893 11.1148 12.5671 11.1148ZM12.1238 20.7923H10.4816V12.1491H12.1238V20.7923Z" fill="#8A8A8A" stroke="#8A8A8A" stroke-width="0.154116"/>
<path d="M11.3028 6.67294C10.2715 6.67294 9.43271 7.51171 9.43271 8.5429C9.43271 9.5742 10.2715 10.413 11.3028 10.413C12.3338 10.413 13.1727 9.5742 13.1727 8.5429C13.1727 7.51171 12.334 6.67294 11.3028 6.67294ZM11.3028 9.37871C10.8419 9.37871 10.467 9.00375 10.467 8.5429C10.467 8.08216 10.8419 7.7072 11.3028 7.7072C11.7635 7.7072 12.1385 8.08216 12.1385 8.5429C12.1385 9.00365 11.7635 9.37871 11.3028 9.37871Z" fill="#8A8A8A" stroke="#8A8A8A" stroke-width="0.154116"/>
<path d="M19.1122 12.4292C18.5339 12.44 17.9766 12.6572 17.543 13.041L19.1122 12.4292ZM19.1122 12.4292C19.6912 12.4182 20.2531 12.6157 20.695 12.9847L19.1122 12.4292ZM21.9152 15.7556V20.7922H20.4448V15.581C20.4448 14.558 19.6125 13.7257 18.5894 13.7257C17.5663 13.7257 16.7341 14.558 16.7341 15.581V20.7922H15.092V12.149H16.7341V12.7115V12.7886H16.7403C16.7544 12.8839 16.7953 12.9765 16.8641 13.0543L16.8641 13.0543C17.0533 13.2681 17.3802 13.288 17.594 13.0987C18.0139 12.727 18.5536 12.5167 19.1137 12.5062L19.1137 12.5062C19.6742 12.4956 20.218 12.6868 20.6456 13.0438L20.6456 13.0438C21.4527 13.7174 21.9152 14.7057 21.9152 15.7556ZM21.3084 12.2499C20.6896 11.7334 19.9031 11.4573 19.0946 11.4722L19.0946 11.4722C18.6339 11.4807 18.1829 11.5833 17.7683 11.7694V11.6828C17.7683 11.3692 17.514 11.1148 17.2003 11.1148H14.6257C14.312 11.1148 14.0577 11.3692 14.0577 11.6828V21.2584C14.0577 21.5722 14.3121 21.8264 14.6257 21.8264H17.2511C17.5367 21.8264 17.7683 21.5949 17.7683 21.3093V15.6002C17.7683 15.1509 18.1198 14.7735 18.5644 14.7603C19.0285 14.7466 19.4104 15.12 19.4104 15.581V21.3185C19.4104 21.599 19.6379 21.8264 19.9183 21.8264H22.4416C22.7221 21.8264 22.9495 21.599 22.9495 21.3185V15.7556C22.9495 14.3983 22.3512 13.1204 21.3084 12.2499Z" fill="#8A8A8A" stroke="#8A8A8A" stroke-width="0.154116"/>
</svg>
