<svg width="18" height="20" viewBox="0 0 18 20" fill="none" xmlns="http://www.w3.org/2000/svg">
<path fill-rule="evenodd" clip-rule="evenodd" d="M8.79247 4.99711e-05C4.18344 -0.01561 0.418772 3.65135 0.268302 8.2414L0.263672 8.5263C0.340282 10.7761 1.10574 12.9207 2.45395 14.6876L2.77059 15.1008C4.05747 16.7371 5.58678 18.1733 7.30397 19.3571L7.71737 19.6354L7.77767 19.6828C8.36627 20.1057 9.16097 20.1057 9.74947 19.6828L9.79967 19.6415C11.1623 18.7579 12.4187 17.7196 13.5442 16.5473C15.8323 14.1252 17.2114 11.4112 17.2635 8.655L17.2636 8.5526C17.2792 3.93192 13.6235 0.15567 9.04767 0.00468984L8.79247 4.99711e-05ZM8.78737 1.51747C12.5659 1.53038 15.6337 4.54942 15.7476 8.3091L15.7508 8.6406C15.7071 10.9514 14.4971 13.3324 12.4503 15.4991C11.4066 16.5862 10.2364 17.5526 8.96727 18.3745L8.88267 18.438C8.81427 18.4974 8.71287 18.4974 8.64457 18.438L8.56237 18.376C6.67164 17.1416 5.01224 15.583 3.66003 13.7717C2.57085 12.3442 1.92542 10.6374 1.79551 8.8569L1.77642 8.4999C1.78926 4.71221 4.79899 1.63498 8.54717 1.52071L8.78737 1.51747ZM8.76357 5.40129C6.97517 5.40129 5.52543 6.85554 5.52543 8.6495C5.52543 10.4434 6.97517 11.8976 8.76357 11.8976C10.552 11.8976 12.0018 10.4434 12.0018 8.6495C12.0018 6.85554 10.552 5.40129 8.76357 5.40129ZM8.76357 6.91871C9.71647 6.91871 10.489 7.69359 10.489 8.6495C10.489 9.6053 9.71647 10.3802 8.76357 10.3802C7.81067 10.3802 7.03817 9.6053 7.03817 8.6495C7.03817 7.69359 7.81067 6.91871 8.76357 6.91871Z" fill="#8A8A8A"/>
</svg>
