<svg width="38" height="40" viewBox="0 0 38 40" fill="none" xmlns="http://www.w3.org/2000/svg">
<path d="M33.1797 25.7313V23.6719C33.1797 21.0872 31.0769 18.9844 28.4922 18.9844C25.9075 18.9844 23.8047 21.0872 23.8047 23.6719V25.7048C21.3123 26.527 19.5078 28.8764 19.5078 31.6406V33.75C19.5078 37.1963 22.3116 40 25.7578 40H31.1484C34.5947 40 37.3984 37.1963 37.3984 33.75V31.6406C37.3984 28.9054 35.6315 26.5766 33.1797 25.7313ZM28.4922 22.1094C29.3538 22.1094 30.0547 22.8103 30.0547 23.6719V25.3906H26.9297V23.6719C26.9297 22.8103 27.6306 22.1094 28.4922 22.1094ZM34.2734 33.75C34.2734 35.4731 32.8716 36.875 31.1484 36.875H25.7578C24.0347 36.875 22.6328 35.4731 22.6328 33.75V31.6406C22.6328 29.9175 24.0347 28.5156 25.7578 28.5156H31.1484C32.8716 28.5156 34.2734 29.9175 34.2734 31.6406V33.75ZM15.8359 21.0938C21.6515 21.0938 26.3828 16.3624 26.3828 10.5469C26.3828 4.73133 21.6515 0 15.8359 0C10.0204 0 5.28906 4.73133 5.28906 10.5469C5.28906 16.3624 10.0204 21.0938 15.8359 21.0938ZM15.8359 3.125C19.9284 3.125 23.2578 6.45445 23.2578 10.5469C23.2578 14.6393 19.9284 17.9688 15.8359 17.9688C11.7435 17.9688 8.41406 14.6393 8.41406 10.5469C8.41406 6.45445 11.7435 3.125 15.8359 3.125ZM30.4974 32.6562C30.4974 33.7349 29.623 34.6094 28.5443 34.6094C27.4656 34.6094 26.5912 33.7349 26.5912 32.6562C26.5912 31.5776 27.4656 30.7031 28.5443 30.7031C29.623 30.7031 30.4974 31.5776 30.4974 32.6562ZM17.9453 25.7812C17.9453 26.6442 17.2458 27.3438 16.3828 27.3438H14.8203C8.7032 27.3438 3.72656 32.3204 3.72656 38.4375C3.72656 39.3005 3.02703 40 2.16406 40C1.30109 40 0.601562 39.3005 0.601562 38.4375C0.601562 30.5973 6.98008 24.2188 14.8203 24.2188H16.3828C17.2458 24.2188 17.9453 24.9183 17.9453 25.7812Z" fill="white"/>
</svg>
