<svg xmlns="http://www.w3.org/2000/svg" viewBox="0 0 22.73 18.76"><defs><style>.cls-1{fill:#fff;}</style></defs><g id="Layer_2" data-name="Layer 2"><g id="Layer_1-2" data-name="Layer 1"><path class="cls-1" d="M1.7,16.2c1.35.77,3.93,1.23,7,1.23a10.41,10.41,0,0,0,7.71-3.51A12.56,12.56,0,0,0,19.6,5.39v0A.77.77,0,0,1,20,4.66,2.88,2.88,0,0,0,21.25,3.3.78.78,0,0,1,20.49,3a.8.8,0,0,1,0-.93,2.83,2.83,0,0,0,.29-.47,19.3,19.3,0,0,1-2,.76.84.84,0,0,1-.66-.07,6.67,6.67,0,0,0-2.64-.95,4.15,4.15,0,0,0-4,4.2.77.77,0,0,1-.94.77,13.8,13.8,0,0,1-8-4,4,4,0,0,0-.26,2.3A4.89,4.89,0,0,0,3.45,6.82a.78.78,0,0,1-.8,1.27,3.56,3.56,0,0,1-.73-.28A6.61,6.61,0,0,0,4.2,10.45a.81.81,0,0,1,.3.91.78.78,0,0,1-.8.52,3.44,3.44,0,0,1-1.05-.22,3.62,3.62,0,0,0,2.86,2,.78.78,0,0,1,.24,1.46A9.44,9.44,0,0,1,1.7,16.2Zm7,2.56c-3.8,0-6.79-.66-8.23-1.81l0,0,0,0a1.19,1.19,0,0,1-.31-1.23l0,0a1.17,1.17,0,0,1,1.08-.74,9.7,9.7,0,0,0,2.59-.36,4.91,4.91,0,0,1-2.59-3,1.07,1.07,0,0,1,.69-1.4A7.35,7.35,0,0,1,.38,7.5V7.44A1.09,1.09,0,0,1,.88,6.26a1,1,0,0,1,.52-.15A5.6,5.6,0,0,1,1,4.83a5.29,5.29,0,0,1,.56-3.56L1.7,1A.75.75,0,0,1,2.27.57.74.74,0,0,1,3,.79L3.21,1a12.12,12.12,0,0,0,7,3.83,5.55,5.55,0,0,1,1.5-3.21A5.28,5.28,0,0,1,15.47,0h0a7.51,7.51,0,0,1,3.12,1C19.26.79,20.06.46,20.9.1a1,1,0,0,1,1.41,1.35,4.25,4.25,0,0,1-.21.49,1.16,1.16,0,0,1,.31.22,1.12,1.12,0,0,1,.28,1.07v0a4.33,4.33,0,0,1-1.75,2.41C20.8,12.91,15.34,18.76,8.65,18.76Z"/></g></g></svg>