<svg xmlns="http://www.w3.org/2000/svg" xmlns:xlink="http://www.w3.org/1999/xlink" viewBox="0 0 33.08 33.08"><defs><style>.cls-1{fill:none;}.cls-2{clip-path:url(#clip-path);}.cls-3{fill:#8a8a8a;}</style><clipPath id="clip-path" transform="translate(1.54 1.54)"><circle class="cls-1" cx="15" cy="15" r="15"/></clipPath></defs><g id="Layer_2" data-name="Layer 2"><g id="Layer_1-2" data-name="Layer 1"><g class="cls-2"><path class="cls-3" d="M15,1.54A13.46,13.46,0,0,1,28.46,15h3.08A16.54,16.54,0,0,0,15-1.54ZM1.54,15A13.46,13.46,0,0,1,15,1.54V-1.54A16.53,16.53,0,0,0-1.54,15ZM15,28.46A13.46,13.46,0,0,1,1.54,15H-1.54A16.54,16.54,0,0,0,15,31.54ZM28.46,15A13.46,13.46,0,0,1,15,28.46v3.08A16.55,16.55,0,0,0,31.54,15Z" transform="translate(1.54 1.54)"/></g><path class="cls-3" d="M9.37,20.44a10.28,10.28,0,0,0,4.59.81,6.89,6.89,0,0,0,5.09-2.31,8.31,8.31,0,0,0,2.14-5.63v0a.52.52,0,0,1,.27-.46,1.81,1.81,0,0,0,.81-.89.51.51,0,0,1-.49-.2.53.53,0,0,1,0-.62,3.28,3.28,0,0,0,.2-.31c-.48.2-.93.38-1.33.5a.54.54,0,0,1-.43-.05,4.24,4.24,0,0,0-1.74-.62,2.73,2.73,0,0,0-2.63,2.77.52.52,0,0,1-.62.51,9.14,9.14,0,0,1-5.29-2.66,2.68,2.68,0,0,0-.17,1.52,3.26,3.26,0,0,0,.77,1.48.53.53,0,0,1,.05.62.53.53,0,0,1-.58.22,2.5,2.5,0,0,1-.48-.18A4.52,4.52,0,0,0,11,16.65a.54.54,0,0,1,.2.6.52.52,0,0,1-.53.34,2.12,2.12,0,0,1-.69-.15,2.36,2.36,0,0,0,1.89,1.34.51.51,0,0,1,.42.43.5.5,0,0,1-.27.54A6.09,6.09,0,0,1,9.37,20.44ZM14,22.13c-2.51,0-4.48-.43-5.43-1.2h0l0,0a.77.77,0,0,1-.2-.81v0A.78.78,0,0,1,9,19.58a6.22,6.22,0,0,0,1.7-.24,3.23,3.23,0,0,1-1.7-2,.69.69,0,0,1,.24-.82.61.61,0,0,1,.21-.11,4.77,4.77,0,0,1-1-1.74v0a.72.72,0,0,1,.69-.88,3.77,3.77,0,0,1-.28-.84,3.5,3.5,0,0,1,.38-2.35l.09-.19a.52.52,0,0,1,.38-.28.54.54,0,0,1,.45.15l.17.17A8,8,0,0,0,15,13a3.68,3.68,0,0,1,1-2.11,3.46,3.46,0,0,1,2.49-1.1h0a5,5,0,0,1,2.06.67c.44-.15,1-.37,1.52-.61a.7.7,0,0,1,.78.14.67.67,0,0,1,.15.75,2.52,2.52,0,0,1-.13.33.9.9,0,0,1,.2.14.77.77,0,0,1,.19.71v0a2.88,2.88,0,0,1-1.16,1.59C22,18.27,18.37,22.13,14,22.13Z" transform="translate(1.54 1.54)"/></g></g></svg>