<?xml version="1.0" encoding="utf-8"?>
<!-- Generator: Adobe Illustrator 24.1.1, SVG Export Plug-In . SVG Version: 6.00 Build 0)  -->
<svg version="1.1" id="Layer_1" xmlns="http://www.w3.org/2000/svg" xmlns:xlink="http://www.w3.org/1999/xlink" x="0px" y="0px"
	 viewBox="0 0 16 20" style="enable-background:new 0 0 16 20;" xml:space="preserve">
<style type="text/css">
	.st0{fill:#676767;}
</style>
<path class="st0" d="M7.8,19.6c-3.3,0-7.6-0.4-7.6-3.5c0-3.6,5.7-3.6,7.6-3.6c3.3,0,7.6,0.4,7.6,3.5C15.4,19.6,9.7,19.6,7.8,19.6z
	 M7.8,14c-2.8,0-6.1,0.4-6.1,2.1c0,1.4,2,2,6.1,2c2.8,0,6.1-0.4,6.1-2.1C13.9,14.6,11.9,14,7.8,14z"/>
<path class="st0" d="M8.4,10.8c-2.8,0-5.1-2.3-5.1-5.1c0-2.8,2.3-5.1,5.1-5.1c2.8,0,5.1,2.3,5.1,5.1C13.5,8.5,11.2,10.8,8.4,10.8z
	 M8.4,2c-2,0-3.6,1.6-3.6,3.6c0,2,1.6,3.6,3.6,3.6S12,7.6,12,5.6C12,3.6,10.4,2,8.4,2z"/>
</svg>
