<svg width="50" height="50" viewBox="0 0 50 50" fill="none" xmlns="http://www.w3.org/2000/svg">
<path d="M30.2734 50H11.7188C5.25703 50 0 44.743 0 38.2812V11.7188C0 5.25703 5.25703 0 11.7188 0H38.2812C44.743 0 50 5.25703 50 11.7188V30.4199C50 31.4986 49.1256 32.373 48.0469 32.373C46.9682 32.373 46.0938 31.4986 46.0938 30.4199V11.7188C46.0938 7.41094 42.5891 3.90625 38.2812 3.90625H11.7188C7.41094 3.90625 3.90625 7.41094 3.90625 11.7188V38.2812C3.90625 42.5891 7.41094 46.0938 11.7188 46.0938H30.2734C31.3521 46.0938 32.2266 46.9682 32.2266 48.0469C32.2266 49.1256 31.3521 50 30.2734 50ZM40.2344 12.3047C40.2344 11.226 39.36 10.3516 38.2812 10.3516H20.4102C19.3314 10.3516 18.457 11.226 18.457 12.3047C18.457 13.3834 19.3314 14.2578 20.4102 14.2578H38.2812C39.36 14.2578 40.2344 13.3834 40.2344 12.3047ZM40.2344 20.1172C40.2344 19.0385 39.36 18.1641 38.2812 18.1641H11.7188C10.64 18.1641 9.76562 19.0385 9.76562 20.1172C9.76562 21.1959 10.64 22.0703 11.7188 22.0703H38.2812C39.36 22.0703 40.2344 21.1959 40.2344 20.1172ZM20.7031 27.9297C20.7031 26.851 19.8287 25.9766 18.75 25.9766H11.7188C10.64 25.9766 9.76562 26.851 9.76562 27.9297C9.76562 29.0084 10.64 29.8828 11.7188 29.8828H18.75C19.8287 29.8828 20.7031 29.0084 20.7031 27.9297ZM9.76562 12.1094C9.76562 13.4577 10.8587 14.5508 12.207 14.5508C13.5554 14.5508 14.6484 13.4577 14.6484 12.1094C14.6484 10.761 13.5554 9.66797 12.207 9.66797C10.8587 9.66797 9.76562 10.761 9.76562 12.1094ZM47.912 47.9119C50.6915 45.1324 50.6915 40.6098 47.912 37.8302L41.0654 30.9837C39.0866 29.0048 36.5901 27.669 33.8461 27.1205L28.3125 26.0145C27.6725 25.8862 27.0104 26.0869 26.5486 26.5486C26.0869 27.0104 25.8865 27.6723 26.0145 28.3126L27.1205 33.8462C27.669 36.5903 29.0049 39.0866 30.9836 41.0655L37.8302 47.912C39.1767 49.2584 40.9669 50 42.8711 50C44.7753 50 46.5655 49.2584 47.912 47.9119ZM33.0805 30.951C35.0657 31.3478 36.8717 32.3141 38.3032 33.7457L45.1498 40.5922C46.4063 41.8487 46.4063 43.8933 45.1498 45.1498C44.5412 45.7585 43.7318 46.0938 42.8711 46.0938C42.0104 46.0938 41.201 45.7585 40.5924 45.1498L33.7458 38.3033C32.3143 36.8717 31.3479 35.0657 30.9511 33.0806L30.4191 30.4191L33.0805 30.951Z" fill="white"/>
</svg>
