<?xml version="1.0" encoding="utf-8"?>
<!-- Generator: Adobe Illustrator 24.1.1, SVG Export Plug-In . SVG Version: 6.00 Build 0)  -->
<svg version="1.1" id="Layer_1" xmlns="http://www.w3.org/2000/svg" xmlns:xlink="http://www.w3.org/1999/xlink" x="0px" y="0px"
	 viewBox="0 0 28 28" style="enable-background:new 0 0 28 28;" xml:space="preserve">
<style type="text/css">
	.st0{fill:#7449D8;}
</style>
<g>
	<path class="st0" d="M5.4,9.6h17.7c2.3,0,4.2,1.9,4.2,4.2l0,0c0,2.3-1.9,4.2-4.2,4.2H5.4c-2.3,0-4.2-1.9-4.2-4.2l0,0
		C1.2,11.5,3.1,9.6,5.4,9.6z"/>
	<path class="st0" d="M23.1,18.4H5.4c-2.5,0-4.6-2.1-4.6-4.6s2.1-4.6,4.6-4.6h17.7c2.5,0,4.6,2.1,4.6,4.6S25.7,18.4,23.1,18.4z
		 M5.4,10c-2.1,0-3.8,1.7-3.8,3.8s1.7,3.8,3.8,3.8h17.7c2.1,0,3.8-1.7,3.8-3.8S25.2,10,23.1,10H5.4z"/>
</g>
</svg>
