<svg width="18" height="22" viewBox="0 0 18 22" fill="none" xmlns="http://www.w3.org/2000/svg">
<path d="M17.2487 20.5806H15.8294V3.19355C15.8294 2.80163 15.5117 2.48387 15.1197 2.48387H9.79713V0.709677C9.79713 0.317758 9.47941 0 9.08745 0H4.16406C3.77214 0 3.45439 0.317758 3.45439 0.709677V2.48387H2.87777C2.48585 2.48387 2.16809 2.80163 2.16809 3.19355V20.5806H0.74874C0.356821 20.5806 0.0390625 20.8984 0.0390625 21.2903C0.0390625 21.6822 0.356821 22 0.74874 22H17.2487C17.6407 22 17.9584 21.6822 17.9584 21.2903C17.9584 20.8984 17.6407 20.5806 17.2487 20.5806ZM4.87374 1.41935H8.37777V2.48387H4.87374V1.41935ZM7.57939 20.5806V17.5645H10.4181V20.5806H7.57939ZM11.8375 20.5806V17.5645H12.1479C12.5399 17.5645 12.8576 17.2468 12.8576 16.8548C12.8576 16.4629 12.5399 16.1452 12.1479 16.1452C9.67941 16.1452 8.13595 16.1452 5.84955 16.1452C5.45763 16.1452 5.13987 16.4629 5.13987 16.8548C5.13987 17.2468 5.45763 17.5645 5.84955 17.5645H6.16003V20.5806H3.58745V3.90323H14.41V20.5806H11.8375ZM7.97858 5.9879C7.97858 6.37982 7.66082 6.69758 7.2689 6.69758H6.47051C6.0786 6.69758 5.76084 6.37982 5.76084 5.9879C5.76084 5.59598 6.0786 5.27823 6.47051 5.27823H7.2689C7.66082 5.27823 7.97858 5.59598 7.97858 5.9879ZM12.1923 5.9879C12.1923 6.37982 11.8746 6.69758 11.4826 6.69758H10.6842C10.2923 6.69758 9.97455 6.37982 9.97455 5.9879C9.97455 5.59598 10.2923 5.27823 10.6842 5.27823H11.4826C11.8746 5.27823 12.1923 5.59598 12.1923 5.9879ZM7.97858 8.64919C7.97858 9.04111 7.66082 9.35887 7.2689 9.35887H6.47051C6.0786 9.35887 5.76084 9.04111 5.76084 8.64919C5.76084 8.25727 6.0786 7.93952 6.47051 7.93952H7.2689C7.66082 7.93952 7.97858 8.25727 7.97858 8.64919ZM12.1923 8.64919C12.1923 9.04111 11.8746 9.35887 11.4826 9.35887H10.6842C10.2923 9.35887 9.97455 9.04111 9.97455 8.64919C9.97455 8.25727 10.2923 7.93952 10.6842 7.93952H11.4826C11.8746 7.93952 12.1923 8.25727 12.1923 8.64919ZM7.97858 11.3105C7.97858 11.7024 7.66082 12.0202 7.2689 12.0202H6.47051C6.0786 12.0202 5.76084 11.7024 5.76084 11.3105C5.76084 10.9186 6.0786 10.6008 6.47051 10.6008H7.2689C7.66082 10.6008 7.97858 10.9186 7.97858 11.3105ZM12.1923 11.3105C12.1923 11.7024 11.8746 12.0202 11.4826 12.0202H10.6842C10.2923 12.0202 9.97455 11.7024 9.97455 11.3105C9.97455 10.9186 10.2923 10.6008 10.6842 10.6008H11.4826C11.8746 10.6008 12.1923 10.9186 12.1923 11.3105ZM7.97858 13.9718C7.97858 14.3637 7.66082 14.6815 7.2689 14.6815H6.47051C6.0786 14.6815 5.76084 14.3637 5.76084 13.9718C5.76084 13.5799 6.0786 13.2621 6.47051 13.2621H7.2689C7.66082 13.2621 7.97858 13.5799 7.97858 13.9718ZM12.1923 13.9718C12.1923 14.3637 11.8746 14.6815 11.4826 14.6815H10.6842C10.2923 14.6815 9.97455 14.3637 9.97455 13.9718C9.97455 13.5799 10.2923 13.2621 10.6842 13.2621H11.4826C11.8746 13.2621 12.1923 13.5799 12.1923 13.9718Z" fill="#676767"/>
</svg>
