<svg width="50" height="48" viewBox="0 0 50 48" fill="none" xmlns="http://www.w3.org/2000/svg">
<path d="M38.2812 39.8203H11.7167C5.25615 39.8203 0 34.5643 0 28.1036V12.0859C0 5.62422 5.25703 0.367188 11.7188 0.367188H31.0547C32.1334 0.367188 33.0078 1.2416 33.0078 2.32031C33.0078 3.39902 32.1334 4.27344 31.0547 4.27344H11.7188C7.41094 4.27344 3.90625 7.77812 3.90625 12.0859V28.1036C3.90625 32.4103 7.41006 35.9141 11.7167 35.9141H38.2812C42.5891 35.9141 46.0938 32.4094 46.0938 28.1016V19.3125C46.0938 18.2338 46.9682 17.3594 48.0469 17.3594C49.1256 17.3594 50 18.2338 50 19.3125V28.1016C50 34.5633 44.743 39.8203 38.2812 39.8203ZM36.3281 45.6797C36.3281 44.601 35.4537 43.7266 34.375 43.7266H15.625C14.5463 43.7266 13.6719 44.601 13.6719 45.6797C13.6719 46.7584 14.5463 47.6328 15.625 47.6328H34.375C35.4537 47.6328 36.3281 46.7584 36.3281 45.6797ZM50 11.5V6.3415C50 3.04717 47.32 0.367188 44.0258 0.367188H38.8672C37.7885 0.367188 36.9141 1.2416 36.9141 2.32031C36.9141 3.39902 37.7885 4.27344 38.8672 4.27344H44.0258C45.166 4.27344 46.0938 5.20117 46.0938 6.3415V11.5C46.0938 12.5787 46.9682 13.4531 48.0469 13.4531C49.1256 13.4531 50 12.5787 50 11.5ZM43.2085 10.3089C43.9534 9.52881 43.9249 8.29248 43.1448 7.54756C42.3647 6.80264 41.1284 6.83105 40.3834 7.61113C35.6433 12.5749 29.3477 15.3086 22.6562 15.3086H21.5019C20.4231 15.3086 19.5487 16.183 19.5487 17.2617C19.5487 18.3404 20.4231 19.2148 21.5019 19.2148H22.6562C30.4252 19.2148 37.7241 16.052 43.2085 10.3089Z" fill="white"/>
</svg>
