<svg xmlns="http://www.w3.org/2000/svg" xmlns:xlink="http://www.w3.org/1999/xlink" viewBox="0 0 33.08 33.08"><defs><style>.cls-1{fill:none;}.cls-2{clip-path:url(#clip-path);}.cls-3{fill:#8a8a8a;}</style><clipPath id="clip-path" transform="translate(1.54 1.54)"><circle class="cls-1" cx="15" cy="15" r="15"/></clipPath></defs><g id="Layer_2" data-name="Layer 2"><g id="Layer_1-2" data-name="Layer 1"><g class="cls-2"><path class="cls-3" d="M15,1.54A13.46,13.46,0,0,1,28.46,15h3.08A16.54,16.54,0,0,0,15-1.54ZM1.54,15A13.46,13.46,0,0,1,15,1.54V-1.54A16.53,16.53,0,0,0-1.54,15ZM15,28.46A13.46,13.46,0,0,1,1.54,15H-1.54A16.54,16.54,0,0,0,15,31.54ZM28.46,15A13.46,13.46,0,0,1,15,28.46v3.08A16.55,16.55,0,0,0,31.54,15Z" transform="translate(1.54 1.54)"/></g><path class="cls-3" d="M18.29,8.38ZM13.51,21.62h2.1V16a.48.48,0,0,1,.48-.49h2v-2h-2a.48.48,0,0,1-.48-.49V11.66a1.48,1.48,0,0,1,.29-1,1.51,1.51,0,0,1,1.15-.4h1.08V8.38H16.45a2.77,2.77,0,0,0-2.94,3V13a.49.49,0,0,1-.49.49H11.38v2H13a.49.49,0,0,1,.49.49Zm2.25.88h-2.4a.73.73,0,0,1-.73-.73V16.35h-1.4a.73.73,0,0,1-.73-.72V13.3a.73.73,0,0,1,.73-.72h1.4V11.41a3.92,3.92,0,0,1,1-2.83A3.73,3.73,0,0,1,16.46,7.5h1.83a.73.73,0,0,1,.72.73v2.16a.72.72,0,0,1-.72.72H17.05c-.37,0-.47.08-.49.1a.84.84,0,0,0-.07.45v.92h1.7a.71.71,0,0,1,.36.09.73.73,0,0,1,.38.63v2.33a.73.73,0,0,1-.73.72H16.49v5.42A.73.73,0,0,1,15.76,22.5Z" transform="translate(1.54 1.54)"/></g></g></svg>