<svg width="28" height="28" viewBox="0 0 28 28" fill="none" xmlns="http://www.w3.org/2000/svg">
<g clip-path="url(#clip0)">
<path d="M1.36719 8.20322C2.12226 8.20322 2.73438 7.59111 2.73438 6.83603C2.73438 6.08095 2.12226 5.46884 1.36719 5.46884C0.612111 5.46884 0 6.08095 0 6.83603C0 7.59111 0.612111 8.20322 1.36719 8.20322Z" fill="white"/>
<path d="M26.6328 8.20319C27.3879 8.20319 28 7.59108 28 6.836C28 6.08092 27.3879 5.46881 26.6328 5.46881C25.8777 5.46881 25.2656 6.08092 25.2656 6.836C25.2656 7.59108 25.8777 8.20319 26.6328 8.20319Z" fill="white"/>
<path d="M4.10156 2.73447C4.85664 2.73447 5.46875 2.12236 5.46875 1.36728C5.46875 0.612202 4.85664 9.15527e-05 4.10156 9.15527e-05C3.34649 9.15527e-05 2.73438 0.612202 2.73438 1.36728C2.73438 2.12236 3.34649 2.73447 4.10156 2.73447Z" fill="white"/>
<path d="M1.58594 14.3829C2.34101 14.3829 2.95312 13.7708 2.95312 13.0157C2.95312 12.2606 2.34101 11.6485 1.58594 11.6485C0.830861 11.6485 0.21875 12.2606 0.21875 13.0157C0.21875 13.7708 0.830861 14.3829 1.58594 14.3829Z" fill="white"/>
<path d="M17.0704 24.17C16.4954 23.9848 15.8792 24.3003 15.6937 24.8752L15.3913 25.8125H12.5545L12.2522 24.8752C12.0667 24.3003 11.4504 23.9845 10.8755 24.17C10.3005 24.3554 9.98489 24.9718 10.1703 25.5467L10.7172 27.242C10.8629 27.6938 11.2834 28 11.7581 28H16.1878C16.6625 28 17.0829 27.6938 17.2287 27.242L17.7756 25.5467C17.961 24.9718 17.6453 24.3554 17.0704 24.17Z" fill="white"/>
<path d="M26.4688 14.3829C27.2238 14.3829 27.8359 13.7708 27.8359 13.0157C27.8359 12.2606 27.2238 11.6485 26.4688 11.6485C25.7137 11.6485 25.1016 12.2606 25.1016 13.0157C25.1016 13.7708 25.7137 14.3829 26.4688 14.3829Z" fill="white"/>
<path d="M24.0078 2.73447C24.7629 2.73447 25.375 2.12236 25.375 1.36728C25.375 0.612202 24.7629 9.15527e-05 24.0078 9.15527e-05C23.2527 9.15527e-05 22.6406 0.612202 22.6406 1.36728C22.6406 2.12236 23.2527 2.73447 24.0078 2.73447Z" fill="white"/>
<path d="M16.2422 9.89853H13.8285L15.8744 7.03427C16.2255 6.54274 16.1116 5.85964 15.6201 5.50854C15.1286 5.15734 14.4455 5.2712 14.0944 5.76279L10.8131 10.3565C10.575 10.69 10.5431 11.1285 10.7306 11.4927C10.9181 11.8571 11.2934 12.086 11.7031 12.086H14.0924L12.1315 14.778C11.7759 15.2663 11.8834 15.9504 12.3717 16.3061C12.566 16.4476 12.7914 16.5158 13.0147 16.5158C13.3525 16.5158 13.6857 16.3598 13.8998 16.0659L17.1263 11.6362C17.3686 11.3036 17.4037 10.8631 17.2171 10.4963C17.0304 10.1295 16.6537 9.89853 16.2422 9.89853Z" fill="white"/>
<path d="M13.9994 9.62646e-05C14.0076 -7.27783e-05 13.9913 -7.27783e-05 13.9994 9.62646e-05V9.62646e-05Z" fill="white"/>
<path d="M21.1694 2.81321C19.2992 1.01585 16.7235 0.0183024 14 9.15527e-05C11.2764 0.0183024 8.70071 1.01585 6.83051 2.81321C4.89442 4.67394 3.82812 7.24851 3.82812 10.0626C3.82812 12.9836 5.01927 16.0324 7.27288 18.8796C8.945 20.9921 10.6104 22.2579 10.6806 22.3108C10.8703 22.4539 11.1015 22.5313 11.3391 22.5313H16.6086C16.8448 22.5313 17.0746 22.4549 17.2638 22.3134C17.3344 22.2606 19.0128 20.9951 20.6982 18.883C22.9706 16.0352 24.1718 12.9852 24.1718 10.0626C24.1718 7.24845 23.1055 4.67394 21.1694 2.81321ZM16.2246 20.3438H11.7257C10.5538 19.3621 6.01562 15.2259 6.01562 10.0626C6.01562 5.5858 9.4526 2.20667 14 2.18758C18.5473 2.20667 21.9843 5.5858 21.9843 10.0626C21.9843 15.2291 17.3995 19.3682 16.2246 20.3438Z" fill="white"/>
</g>
<defs>
<clipPath id="clip0">
<rect width="28" height="28" fill="white"/>
</clipPath>
</defs>
</svg>
