<svg xmlns="http://www.w3.org/2000/svg" viewBox="0 0 20.56 23.04"><defs><style>.cls-1{fill:#fff;}</style></defs><g id="Layer_2" data-name="Layer 2"><g id="Layer_1-2" data-name="Layer 1"><path class="cls-1" d="M4.08,8.22V21.55h.31V8.22Zm-2.57.15H4.23V8.06H1.51Zm.16,13.18V8.22H1.36V21.55Zm2.56-.16H1.51v.31H4.23ZM5.72,7.66a.93.93,0,0,0-.93-.93V7a.62.62,0,0,1,.62.62Zm0,14.44V7.66H5.41V22.1ZM4.79,23a.94.94,0,0,0,.93-.94H5.41a.63.63,0,0,1-.62.63ZM1,23H4.79v-.31H1ZM0,22.1A.94.94,0,0,0,1,23v-.31a.63.63,0,0,1-.63-.63ZM0,7.66V22.1H.33V7.66ZM1,6.73A.94.94,0,0,0,0,7.66H.33A.63.63,0,0,1,1,7Zm3.83,0H1V7H4.79ZM4.23,8.22h.16V8.06H4.23Zm-2.72,0V8.06H1.36v.16Zm0,13.33H1.36v.15h.15Zm2.72,0v.15h.16v-.15Z"/><path class="cls-1" d="M4.23,21.55H1.51V8.22H4.23ZM4.79,6.88H1a.78.78,0,0,0-.78.78V22.1a.78.78,0,0,0,.78.78H4.79a.78.78,0,0,0,.78-.78V7.66A.78.78,0,0,0,4.79,6.88Z"/><path class="cls-1" d="M4.1,2.87A1.23,1.23,0,0,1,2.87,4.1v.31A1.54,1.54,0,0,0,4.41,2.87ZM2.87,1.64A1.23,1.23,0,0,1,4.1,2.87h.31A1.54,1.54,0,0,0,2.87,1.33ZM1.64,2.87A1.23,1.23,0,0,1,2.87,1.64V1.33A1.54,1.54,0,0,0,1.33,2.87ZM2.87,4.1A1.23,1.23,0,0,1,1.64,2.87H1.33A1.54,1.54,0,0,0,2.87,4.41ZM5.74,2.87A2.88,2.88,0,0,0,2.87,0V.31A2.56,2.56,0,0,1,5.43,2.87ZM2.87,5.74A2.88,2.88,0,0,0,5.74,2.87H5.43A2.56,2.56,0,0,1,2.87,5.43ZM0,2.87A2.88,2.88,0,0,0,2.87,5.74V5.43A2.56,2.56,0,0,1,.31,2.87ZM2.87,0A2.88,2.88,0,0,0,0,2.87H.31A2.56,2.56,0,0,1,2.87.31Z"/><path class="cls-1" d="M2.87,4.25A1.38,1.38,0,1,1,4.25,2.87,1.38,1.38,0,0,1,2.87,4.25Zm0-4.1A2.72,2.72,0,1,0,5.59,2.87,2.72,2.72,0,0,0,2.87.15Z"/><path class="cls-1" d="M18.91,13.8v7.75h.31V13.8ZM17,9.72a5.28,5.28,0,0,1,1.91,4.08h.31a5.6,5.6,0,0,0-2-4.32Zm-2.29-.81A3.47,3.47,0,0,1,17,9.72l.2-.24a3.79,3.79,0,0,0-2.5-.87Zm-2.28.89a3.56,3.56,0,0,1,2.28-.89v-.3a3.86,3.86,0,0,0-2.48,1Zm-1.16-.07a.82.82,0,0,0,1.16.07l-.21-.23a.51.51,0,0,1-.72,0Zm-.21-.54a.82.82,0,0,0,.21.54l.23-.2a.5.5,0,0,1-.13-.34Zm.16.15h0V9h0Zm-.16-1.12v1h.31v-1ZM8.5,8.37h2.72V8.06H8.5Zm.15,13.18V8.22H8.34V21.55Zm2.57-.16H8.5v.31h2.72Zm-.16-7.85v8h.31v-8Zm2.85-2.85a2.85,2.85,0,0,0-2.85,2.85h.31A2.55,2.55,0,0,1,13.91,11Zm2.85,2.85a2.85,2.85,0,0,0-2.85-2.85V11a2.55,2.55,0,0,1,2.54,2.55Zm0,8v-8h-.31v8Zm2.31-.16H16.61v.31h2.46Zm1.49-7.59a7,7,0,0,0-2.5-5.34l-.2.24a6.6,6.6,0,0,1,2.39,5.1Zm0,8.43V13.8h-.31v8.43Zm-.81.81a.82.82,0,0,0,.81-.81h-.31a.51.51,0,0,1-.5.5Zm-3.82,0h3.82v-.31H15.93Zm-.81-.81a.81.81,0,0,0,.81.81v-.31a.5.5,0,0,1-.5-.5Zm0-8.69v8.69h.31V13.54Zm-1.25-1.21a1.21,1.21,0,0,1,1.25,1.21h.31A1.52,1.52,0,0,0,13.87,12ZM12.7,13.56a1.22,1.22,0,0,1,1.17-1.23V12a1.53,1.53,0,0,0-1.47,1.54Zm0,8.65V13.56h-.3v8.65Zm-.82.83a.82.82,0,0,0,.82-.83h-.3a.52.52,0,0,1-.52.52Zm-4,0h4v-.31h-4Zm-.9-.9a.9.9,0,0,0,.9.9v-.31a.59.59,0,0,1-.59-.59ZM7,7.63V22.14h.31V7.63Zm.9-.9a.9.9,0,0,0-.9.9h.31A.58.58,0,0,1,7.91,7Zm3.9,0H7.91V7h3.9Zm.89.9a.89.89,0,0,0-.89-.9V7a.59.59,0,0,1,.59.59Zm0,.31V7.63h-.3v.31Zm2-.67a5.21,5.21,0,0,0-2.2.54l.14.27a4.88,4.88,0,0,1,2.06-.5Zm3.38,1.19a5.15,5.15,0,0,0-3.38-1.19v.31A4.85,4.85,0,0,1,17.86,8.7Zm-1,1.14-.1.12h0Zm-2.4-.84v.15h0Zm-2.37.93-.11-.12h0Zm-.95-.06-.11.1h0Zm-.16-.44h.15V9h-.15Zm0,0h-.16v.15h.16Zm0-1h.15V8.06h-.15Zm-2.72,0V8.06H8.34v.16Zm0,13.33H8.34v.15H8.5Zm2.72,0v.15h.15v-.15Zm5.39,0h-.16v.15h.16Zm2.46,0v.15h.15v-.15Zm-5.2-9.38V12h0ZM12.55,7.94H12.4v.25l.22-.11Zm2.13-.51v.15h0Z"/><path class="cls-1" d="M19.07,21.55H16.61v-8a2.7,2.7,0,1,0-5.39,0v8H8.5V8.22h2.72v1h0a.66.66,0,0,0,1.11.5,3.65,3.65,0,0,1,2.37-.93,3.61,3.61,0,0,1,2.4.84,5.45,5.45,0,0,1,2,4.2ZM18,8.58a4.91,4.91,0,0,0-3.28-1.15,5.06,5.06,0,0,0-2.13.51V7.63a.75.75,0,0,0-.74-.75H7.91a.76.76,0,0,0-.75.75V22.14a.75.75,0,0,0,.75.74h4a.67.67,0,0,0,.67-.67V13.56a1.39,1.39,0,0,1,1.32-1.39,1.37,1.37,0,0,1,1.4,1.37v8.69a.65.65,0,0,0,.66.65h3.82a.65.65,0,0,0,.65-.65V13.8A6.78,6.78,0,0,0,18,8.58Z"/></g></g></svg>