<?xml version="1.0" encoding="utf-8"?>
<!-- Generator: Adobe Illustrator 24.1.1, SVG Export Plug-In . SVG Version: 6.00 Build 0)  -->
<svg version="1.1" id="Layer_1" xmlns="http://www.w3.org/2000/svg" xmlns:xlink="http://www.w3.org/1999/xlink" x="0px" y="0px"
	 viewBox="0 0 30 30" style="enable-background:new 0 0 30 30;" xml:space="preserve">
<style type="text/css">
	.st0{fill:#7449D8;}
</style>
<path class="st0" d="M15,0H0.3C0.1,0,0,0.1,0,0.3V15c0,8.3,6.7,15,15,15s15-6.7,15-15S23.3,0,15,0z M22.5,10.5l-9.6,10
	c-0.1,0.2-0.3,0.2-0.5,0.2s-0.4-0.1-0.5-0.2l-4.4-4.1c-0.3-0.3-0.3-0.8,0-1.1s0.8-0.3,1.1,0l3.9,3.6l9.1-9.5c0.3-0.3,0.8-0.3,1.1,0
	C22.8,9.7,22.8,10.2,22.5,10.5z"/>
</svg>
