<svg width="50" height="50" viewBox="0 0 50 50" fill="none" xmlns="http://www.w3.org/2000/svg">
<path d="M38.2812 42.1875H11.7167C5.25615 42.1875 0 36.9313 0 30.4708V14.4531C0 7.99141 5.25703 2.73438 11.7188 2.73438H20.5078C21.5865 2.73438 22.4609 3.60879 22.4609 4.6875C22.4609 5.76621 21.5865 6.64062 20.5078 6.64062H11.7188C7.41094 6.64062 3.90625 10.1453 3.90625 14.4531V30.4708C3.90625 34.7774 7.41006 38.2812 11.7167 38.2812H38.2812C42.5891 38.2812 46.0938 34.7766 46.0938 30.4688V27.832C46.0938 26.7533 46.9682 25.8789 48.0469 25.8789C49.1256 25.8789 50 26.7533 50 27.832V30.4688C50 36.9305 44.743 42.1875 38.2812 42.1875ZM27.5529 25.2092L27.7295 25.0326C28.68 24.082 30.1249 23.8447 31.325 24.4423C33.1096 25.3308 35.0373 25.7812 37.0534 25.7812H37.0659C40.4944 25.7812 43.7237 24.461 46.1596 22.0637C48.6028 19.6589 49.9665 16.446 49.9994 13.0168C50.0328 9.53633 48.7093 6.26455 46.2724 3.8042C43.8427 1.35098 40.5885 0 37.1094 0C33.654 0 30.4044 1.35957 27.9594 3.82812C25.5168 6.29424 24.1888 9.55391 24.2192 13.0069L24.2188 23.828C24.2188 24.618 24.6945 25.3302 25.4244 25.6326C25.6661 25.7327 25.9198 25.7813 26.1715 25.7813C26.6797 25.7812 27.1793 25.5828 27.5529 25.2092ZM28.1251 20.4468L28.1255 12.9981C28.1255 12.9919 28.1255 12.9856 28.1254 12.9793C28.1023 10.5729 29.0289 8.29922 30.7347 6.57695C32.4405 4.85469 34.7045 3.90625 37.1094 3.90625C39.538 3.90625 41.8065 4.84619 43.497 6.55303C45.1945 8.26709 46.1166 10.5492 46.0933 12.9793C46.0462 17.8855 41.9971 21.8753 37.0639 21.875C37.0611 21.875 37.0578 21.875 37.0553 21.875C35.647 21.875 34.3047 21.5623 33.0659 20.9455C32.0701 20.4497 30.9999 20.2086 29.9382 20.2086C29.3257 20.2087 28.716 20.2889 28.1251 20.4468ZM36.3281 48.0469C36.3281 46.9682 35.4537 46.0938 34.375 46.0938H15.625C14.5463 46.0938 13.6719 46.9682 13.6719 48.0469C13.6719 49.1256 14.5463 50 15.625 50H34.375C35.4537 50 36.3281 49.1256 36.3281 48.0469Z" fill="white"/>
</svg>
