<svg width="50" height="50" viewBox="0 0 50 50" fill="none" xmlns="http://www.w3.org/2000/svg">
<path d="M1.95273 50C1.70107 50 1.44736 49.9514 1.20566 49.8513C0.47578 49.5489 0 48.8367 0 48.0467L0.00117187 25.2346C-0.0602538 18.5363 2.51591 12.2116 7.25594 7.42577C11.9988 2.6372 18.3005 0 24.9999 0C31.7493 0 38.0607 2.61923 42.7713 7.37518C47.4969 12.1464 50.0637 18.4927 49.9988 25.2451C49.9351 31.8949 47.2908 38.1249 42.5531 42.7878C37.8276 47.4389 31.5615 49.9999 24.9083 49.9999C24.9003 49.9999 24.892 49.9999 24.8841 49.9999C20.9486 50 17.1914 49.1173 13.7172 47.3763C10.3976 45.7127 6.3786 46.3834 3.7163 49.0459L3.33427 49.4279C2.96064 49.8015 2.46093 49.9999 1.95273 50ZM9.88933 42.5635C11.786 42.5635 13.6942 42.9954 15.4674 43.8841C18.393 45.3503 21.5619 46.0937 24.8859 46.0937C24.8921 46.0938 24.9 46.0937 24.9061 46.0937C36.4804 46.0945 45.982 36.7268 46.0927 25.2076C46.1475 19.5056 43.9822 14.1489 39.9958 10.1241C36.0246 6.11444 30.699 3.90624 24.9999 3.90624C19.3508 3.90624 14.0349 6.13241 10.0313 10.1746C6.02792 14.2167 3.85302 19.5554 3.90732 25.2076C3.90741 25.2138 3.90741 25.2202 3.90741 25.2264L3.90644 44.0806C5.75721 43.0799 7.81619 42.5635 9.88933 42.5635ZM24.9999 35.4423C23.6897 35.4424 22.3799 35.0331 21.2866 34.2144C16.7752 30.8364 14.3447 26.7904 14.2582 22.5139C14.2579 22.5007 14.2578 22.4876 14.2578 22.4745C14.2578 18.9669 17.1053 16.1132 20.6054 16.1132C22.3093 16.1132 23.8586 16.7881 24.9999 17.8845C26.1414 16.7881 27.6906 16.1132 29.3945 16.1132C32.8946 16.1132 35.7421 18.9669 35.7421 22.4744C35.7421 22.4876 35.742 22.5007 35.7417 22.5138C35.6552 26.7903 33.2248 30.8364 28.7132 34.2144C27.6203 35.0328 26.3099 35.4422 24.9999 35.4423ZM18.1641 22.4563C18.2521 26.2738 21.1825 29.2565 23.6279 31.0875C24.4358 31.6925 25.5641 31.6923 26.3719 31.0876C28.8174 29.2565 31.7478 26.2738 31.8358 22.4563C31.8262 21.111 30.7347 20.0195 29.3945 20.0195C28.0483 20.0195 26.9531 21.1147 26.9531 22.4609C26.9531 23.5396 26.0787 24.414 24.9999 24.414C23.9212 24.414 23.0468 23.5396 23.0468 22.4609C23.0468 21.1147 21.9516 20.0195 20.6054 20.0195C19.2653 20.0195 18.1738 21.111 18.1641 22.4563Z" fill="white"/>
</svg>
