<?xml version="1.0" encoding="utf-8"?>
<!-- Generator: Adobe Illustrator 24.1.1, SVG Export Plug-In . SVG Version: 6.00 Build 0)  -->
<svg version="1.1" id="Layer_1" xmlns="http://www.w3.org/2000/svg" xmlns:xlink="http://www.w3.org/1999/xlink" x="0px" y="0px"
	 viewBox="0 0 18 18" style="enable-background:new 0 0 18 18;" xml:space="preserve">
<style type="text/css">
	.st0{fill:#8A8A8A;}
</style>
<path class="st0" d="M13.4,17.7c-0.6,0-1.3-0.2-2.1-0.5C7.7,15.6,2.1,10.1,0.6,6.4c-0.7-1.5-0.7-2.7,0.1-3.7C0.9,2.2,2.5,0.2,4,0.3
	c0.5,0,0.9,0.3,1.3,0.6c0.3,0.3,2.1,2.5,2.3,3.2c0.2,0.7-0.2,1.3-0.4,1.7C7,6.3,6.9,6.4,7,6.6c0.8,2,2.2,3.4,4.3,4.2
	c0.1,0,0.3,0,0.7-0.2c0.4-0.2,1-0.6,1.7-0.4c0.7,0.2,2.8,1.9,3.2,2.3c0.4,0.4,0.6,0.8,0.6,1.3c0.1,1.6-2.1,3.3-2.4,3.5
	C14.6,17.5,14,17.7,13.4,17.7z M3.9,1.8c-0.5,0-1.8,1.2-2,1.6c0,0,0,0,0,0.1C1.7,3.7,1.3,4.3,2,5.8c1.4,3.3,6.7,8.6,10,10
	c1.5,0.7,2.1,0.3,2.3,0.1c0.5-0.3,1.7-1.5,1.7-2.1l0,0c0,0,0-0.1-0.2-0.3c-0.5-0.5-2.1-1.7-2.5-1.9c-0.1,0-0.3,0.1-0.6,0.3
	c-0.4,0.3-1.1,0.6-1.9,0.3c-2.4-1-4.1-2.7-5.1-5.1c-0.3-0.9,0.1-1.5,0.3-2c0.2-0.3,0.3-0.5,0.2-0.7C6,4.2,4.8,2.5,4.3,2.1
	C4.1,1.9,4,1.8,3.9,1.8C3.9,1.8,3.9,1.8,3.9,1.8z M1.3,3.1L1.3,3.1L1.3,3.1z"/>
</svg>
