<svg width="20" height="20" viewBox="0 0 20 20" fill="none" xmlns="http://www.w3.org/2000/svg">
<path d="M18.1254 9.0625H18.1245C18.0014 9.0626 17.8795 9.08696 17.7658 9.13417C17.6521 9.18138 17.5488 9.25052 17.4618 9.33765C17.3749 9.42478 17.3059 9.5282 17.2589 9.64198C17.2119 9.75577 17.1877 9.8777 17.1878 10.0008C17.1866 11.3152 16.8252 12.604 16.1428 13.7274C15.4604 14.8507 14.4832 15.7654 13.3173 16.3722C12.1514 16.979 10.8415 17.2546 9.52994 17.1691C8.21838 17.0836 6.95537 16.6402 5.87817 15.8871C2.63208 13.6141 1.84032 9.12395 4.11329 5.87781C6.38626 2.63168 10.8765 1.83984 14.1225 4.11289C14.6136 4.45586 15.06 4.85885 15.4511 5.3125H12.8129C12.5642 5.3125 12.3258 5.41127 12.1499 5.58709C11.9741 5.7629 11.8754 6.00136 11.8754 6.25C11.8754 6.49864 11.9741 6.7371 12.1499 6.91291C12.3258 7.08873 12.5642 7.1875 12.8129 7.1875H17.1879C17.4365 7.1875 17.675 7.08873 17.8508 6.91291C18.0266 6.7371 18.1254 6.49864 18.1254 6.25V1.875C18.1254 1.62636 18.0266 1.3879 17.8508 1.21209C17.675 1.03627 17.4365 0.9375 17.1879 0.9375C16.9392 0.9375 16.7008 1.03627 16.5249 1.21209C16.3491 1.3879 16.2504 1.62636 16.2504 1.875V3.43621C15.9214 3.12406 15.5696 2.83681 15.198 2.57684C14.2232 1.89427 13.1235 1.4104 11.9617 1.15283C10.7999 0.895271 9.5987 0.869067 8.42676 1.07572C7.25482 1.28237 6.13506 1.71783 5.13141 2.35723C4.12776 2.99663 3.25987 3.82745 2.57731 4.80227C1.19881 6.77099 0.658843 9.20668 1.07619 11.5735C1.49354 13.9404 2.83402 16.0445 4.80274 17.423C6.3185 18.4906 8.12712 19.0638 9.98114 19.0642C10.5151 19.0639 11.0481 19.0171 11.5739 18.9241C13.6722 18.554 15.5729 17.4565 16.9424 15.8244C18.3119 14.1922 19.0627 12.1298 19.0629 9.99918C19.0626 9.75069 18.9638 9.51245 18.788 9.33681C18.6122 9.16117 18.3739 9.06251 18.1254 9.0625Z" fill="#7449D8"/>
</svg>
