<svg width="50" height="50" viewBox="0 0 50 50" fill="none" xmlns="http://www.w3.org/2000/svg">
<path d="M42.7734 50C38.7887 50 35.5469 46.7582 35.5469 42.7734V24.8047C35.5469 20.8199 38.7887 17.5781 42.7734 17.5781C46.7582 17.5781 50 20.8199 50 24.8047V42.7734C50 46.7582 46.7582 50 42.7734 50ZM42.7734 21.4844C40.9426 21.4844 39.4531 22.9738 39.4531 24.8047V42.7734C39.4531 44.6043 40.9426 46.0938 42.7734 46.0938C44.6043 46.0938 46.0938 44.6043 46.0938 42.7734V24.8047C46.0938 22.9738 44.6043 21.4844 42.7734 21.4844ZM7.22656 50C3.2418 50 0 46.7582 0 42.7734V29.8828C0 25.898 3.2418 22.6562 7.22656 22.6562C11.2113 22.6562 14.4531 25.898 14.4531 29.8828V42.7734C14.4531 46.7582 11.2113 50 7.22656 50ZM7.22656 26.5625C5.3957 26.5625 3.90625 28.052 3.90625 29.8828V42.7734C3.90625 44.6043 5.3957 46.0938 7.22656 46.0938C9.05742 46.0938 10.5469 44.6043 10.5469 42.7734V29.8828C10.5469 28.052 9.05742 26.5625 7.22656 26.5625ZM32.2266 42.7734V35.1562C32.2266 34.0775 31.3521 33.2031 30.2734 33.2031C29.1947 33.2031 28.3203 34.0775 28.3203 35.1562V42.7734C28.3203 44.6043 26.8309 46.0938 25 46.0938C23.1691 46.0938 21.6797 44.6043 21.6797 42.7734V15.0391C21.6797 13.9604 20.8053 13.0859 19.7266 13.0859H17.0429C16.3582 13.0859 16.0882 12.6153 16.0038 12.4129C15.9227 12.2182 15.7836 11.715 16.2442 11.2504L22.3529 5.08809C23.1084 4.32598 24.1179 3.90625 25.1953 3.90625C26.2728 3.90625 27.2822 4.32598 28.0377 5.08818L34.1464 11.2505C34.607 11.7152 34.468 12.2183 34.3868 12.413C34.3025 12.6153 34.0324 13.086 33.3478 13.086H30.2734C29.1947 13.086 28.3203 13.9605 28.3203 15.0392C28.3203 16.1179 29.1947 16.9923 30.2734 16.9923H33.3478C35.3903 16.9923 37.2135 15.7847 37.9925 13.9157C38.7769 12.0338 38.3661 9.95869 36.9206 8.50049L30.8119 2.33818C29.3174 0.830371 27.3227 0 25.1953 0C23.068 0 21.0732 0.830371 19.5786 2.33809L13.4699 8.50039C12.0244 9.95869 11.6137 12.0337 12.398 13.9156C13.1771 15.7846 15.0003 16.9922 17.0429 16.9922H17.7734V42.7734C17.7734 46.7582 21.0152 50 25 50C28.9848 50 32.2266 46.7582 32.2266 42.7734ZM32.2266 27.6367V22.3633C32.2266 21.2846 31.3521 20.4102 30.2734 20.4102C29.1947 20.4102 28.3203 21.2846 28.3203 22.3633V27.6367C28.3203 28.7154 29.1947 29.5898 30.2734 29.5898C31.3521 29.5898 32.2266 28.7154 32.2266 27.6367Z" fill="white"/>
</svg>
