<svg width="28" height="28" viewBox="0 0 28 28" fill="none" xmlns="http://www.w3.org/2000/svg">
<path d="M11.541 23.0605C5.18317 23.0605 0.0107422 17.888 0.0107422 11.5302C0.0107422 5.17243 5.18317 0 11.541 0C17.8988 0 23.0712 5.17243 23.0712 11.5302C23.0712 17.888 17.8988 23.0605 11.541 23.0605ZM11.541 2.18583C6.38844 2.18583 2.19657 6.3777 2.19657 11.5302C2.19657 16.6828 6.38844 20.8746 11.541 20.8746C16.6935 20.8746 20.8854 16.6828 20.8854 11.5302C20.8854 6.3777 16.6935 2.18583 11.541 2.18583ZM27.6693 27.6799C28.096 27.253 28.096 26.561 27.6693 26.1342L22.7785 21.2434C22.3516 20.8166 21.6596 20.8166 21.2328 21.2434C20.806 21.6703 20.806 22.3623 21.2328 22.7891L26.1236 27.6799C26.337 27.8933 26.6167 27.9999 26.8965 27.9999C27.1762 27.9999 27.4558 27.8933 27.6693 27.6799Z" fill="white"/>
</svg>
