<svg width="38" height="40" viewBox="0 0 38 40" fill="none" xmlns="http://www.w3.org/2000/svg">
<path d="M22.822 27.1367C22.5182 27.9445 21.617 28.3531 20.8095 28.0495C19.5641 27.5812 18.2508 27.3438 16.9062 27.3438H14.5625C8.44539 27.3438 3.46875 32.3204 3.46875 38.4375C3.46875 39.3005 2.76922 40 1.90625 40C1.04328 40 0.34375 39.3005 0.34375 38.4375C0.34375 30.5973 6.72227 24.2188 14.5625 24.2188H16.9062C18.6277 24.2188 20.3109 24.5234 21.9092 25.1243C22.717 25.428 23.1255 26.329 22.822 27.1367ZM26.125 10.5469C26.125 16.3624 21.3937 21.0938 15.5781 21.0938C9.76258 21.0938 5.03125 16.3624 5.03125 10.5469C5.03125 4.73133 9.76258 0 15.5781 0C21.3937 0 26.125 4.73133 26.125 10.5469ZM23 10.5469C23 6.45445 19.6705 3.125 15.5781 3.125C11.4857 3.125 8.15625 6.45445 8.15625 10.5469C8.15625 14.6393 11.4857 17.9688 15.5781 17.9688C19.6705 17.9688 23 14.6393 23 10.5469Z" fill="white"/>
<path d="M22 31.8123C22 32.6753 22.6995 33.3748 23.5625 33.3748H28.2498V38.0622C28.2498 38.9251 28.9494 39.6246 29.8123 39.6246C30.6753 39.6246 31.3748 38.9251 31.3748 38.0622V33.3748H36.0622C36.9251 33.3748 37.6246 32.6753 37.6246 31.8123C37.6246 30.9494 36.9251 30.2499 36.0622 30.2499H31.3748V25.5625C31.3748 24.6995 30.6753 24 29.8123 24C28.9494 24 28.2498 24.6995 28.2498 25.5625V30.2499H23.5625C22.6995 30.2499 22 30.9494 22 31.8123Z" fill="white"/>
</svg>
