<svg width="37" height="40" viewBox="0 0 37 40" fill="none" xmlns="http://www.w3.org/2000/svg">
<path d="M15.2344 21.0938C21.0499 21.0938 25.7812 16.3624 25.7812 10.5469C25.7812 4.73133 21.0499 0 15.2344 0C9.41883 0 4.6875 4.73133 4.6875 10.5469C4.6875 16.3624 9.41883 21.0938 15.2344 21.0938ZM15.2344 3.125C19.3268 3.125 22.6562 6.45445 22.6562 10.5469C22.6562 14.6393 19.3268 17.9688 15.2344 17.9688C11.142 17.9688 7.8125 14.6393 7.8125 10.5469C7.8125 6.45445 11.142 3.125 15.2344 3.125Z" fill="white"/>
<path d="M14.4531 24.2188C6.61289 24.2188 0 30.5973 0 38.4375C0 39.3005 0.699531 40 1.5625 40C2.42547 40 3.125 39.3005 3.125 38.4375C3.125 32.3204 8.33602 27.3438 14.4531 27.3438C15.3161 27.3438 16.0156 26.6442 16.0156 25.7812C16.0156 24.9183 15.3161 24.2188 14.4531 24.2188Z" fill="white"/>
<path d="M27.5937 39.4633C26.5455 39.4633 25.4977 39.1359 24.623 38.4809C21.0139 35.7785 19.0695 32.5417 19.0003 29.1205C19.0001 29.11 19 29.0994 19 29.089C19 26.2829 21.278 24 24.0781 24C25.4412 24 26.6807 24.5398 27.5937 25.417C28.5069 24.5398 29.7462 24 31.1094 24C33.9094 24 36.1875 26.2829 36.1875 29.0889C36.1875 29.0994 36.1874 29.11 36.1872 29.1205C36.1179 32.5416 34.1736 35.7785 30.5644 38.4809C29.69 39.1357 28.6417 39.4632 27.5937 39.4633ZM22.1251 29.0744C22.1955 32.1284 24.5398 34.5146 26.4961 35.9794C27.1424 36.4634 28.0451 36.4633 28.6913 35.9795C30.6477 34.5146 32.992 32.1284 33.0624 29.0744C33.0547 27.9982 32.1815 27.125 31.1094 27.125C30.0324 27.125 29.1562 28.0012 29.1562 29.0781C29.1562 29.9411 28.4567 30.6406 27.5937 30.6406C26.7308 30.6406 26.0312 29.9411 26.0312 29.0781C26.0312 28.0012 25.1551 27.125 24.0781 27.125C23.006 27.125 22.1328 27.9982 22.1251 29.0744Z" fill="white"/>
</svg>
