<svg width="40" height="40" viewBox="0 0 40 40" fill="none" xmlns="http://www.w3.org/2000/svg">
<path d="M39.5078 29.8088C38.4891 27.8519 36.1829 27.0266 34.0243 27.8454C32.5188 28.4168 30.6781 29.1152 28.6745 29.6678C28.8594 28.7781 28.7672 27.836 28.3976 26.9402C27.8588 25.6342 26.7515 24.6626 25.3596 24.2745C24.6479 24.076 23.8756 24.0313 23.064 24.1417C17.7108 24.8697 14.5231 23.0596 11.7106 21.4624C9.82041 20.389 8.03494 19.375 5.94478 19.375C3.39869 19.375 1.10306 20.2276 1.10306 20.2276C0.279468 20.4853 -0.179204 21.362 0.0786088 22.1855C0.336343 23.0091 1.21306 23.4675 2.0365 23.2099C2.0365 23.2099 3.8715 22.5 5.94478 22.5C7.20947 22.5 8.51486 23.2413 10.1675 24.1798C12.6422 25.5852 15.8913 27.4307 20.7213 27.4305C21.5897 27.4305 22.5099 27.3708 23.4852 27.2381C23.867 27.1863 24.225 27.2023 24.5202 27.2845C24.8495 27.3764 25.2884 27.598 25.5088 28.1321C25.6797 28.5463 25.6882 28.9339 25.5342 29.2841C25.3452 29.7137 24.9144 30.0697 24.3214 30.2865C23.4672 30.5988 22.2488 30.7655 20.8667 30.7812C19.3802 30.7906 17.9294 30.6208 16.6545 30.2857C15.8198 30.0662 14.9654 30.5652 14.7461 31.3998C14.5267 32.2344 15.0256 33.0887 15.8602 33.308C17.3537 33.7005 19.1606 33.907 20.8667 33.907V33.9051C26.8068 33.8797 31.8922 31.9972 35.1331 30.767C35.6763 30.5611 36.3975 30.5929 36.7501 31.2791C37.0432 31.8421 36.8274 32.543 36.269 32.8413C32.3475 34.9363 27.797 36.875 21.1099 36.875C15.1568 36.875 9.67337 34.5778 6.12166 32.6506C3.60705 31.2861 1.71603 31.5716 1.25619 31.6722C1.25502 31.6724 0.00728062 31.857 0.00728062 33.2031C0.00728062 34.0661 0.706812 34.7656 1.56978 34.7656C1.70908 34.7656 1.9722 34.7129 1.9722 34.7129C1.9722 34.7129 3.01111 34.5183 4.63127 35.3973C8.50111 37.497 14.5013 40 21.1099 40C29.5011 40 35.0668 37.0265 37.7415 35.5976C39.8036 34.496 40.5877 31.8831 39.5078 29.8088Z" fill="white"/>
<path d="M13.5024 15.3282C13.7931 15.8249 14.3156 16.1017 14.8524 16.1017C15.1205 16.1017 15.3921 16.0327 15.6402 15.8876L17.0393 15.0688C18.0106 16.1045 19.2844 16.853 20.7182 17.1722V18.75C20.7182 19.613 21.4177 20.3125 22.2807 20.3125C23.1437 20.3125 23.8432 19.613 23.8432 18.75V17.1722C25.247 16.8597 26.4975 16.1358 27.4609 15.1335L28.7493 15.8876C28.9974 16.0327 29.2689 16.1017 29.537 16.1017C30.0738 16.1017 30.5964 15.8249 30.887 15.3282C31.3229 14.5834 31.0725 13.6263 30.3277 13.1905L29.0878 12.4649C29.3343 11.74 29.4681 10.9634 29.4681 10.1562C29.4681 9.35008 29.3347 8.57445 29.0888 7.85031L30.3302 7.12055C31.0741 6.6832 31.3227 5.72563 30.8854 4.98172C30.4481 4.23773 29.4906 3.98914 28.7466 4.42648L27.4628 5.18109C26.4992 4.17781 25.2479 3.45305 23.8431 3.14031V1.5625C23.8431 0.699531 23.1435 0 22.2806 0C21.4176 0 20.7181 0.699531 20.7181 1.5625V3.14031C19.2831 3.45969 18.0086 4.20914 17.037 5.24609L15.6427 4.42648C14.8986 3.9893 13.9412 4.23781 13.5038 4.98172C13.0665 5.72555 13.3151 6.6832 14.059 7.12055L15.4447 7.93516C15.2167 8.635 15.093 9.38141 15.093 10.1563C15.093 10.9323 15.2171 11.6798 15.4457 12.3805L14.0617 13.1905C13.317 13.6263 13.0666 14.5834 13.5024 15.3282ZM22.2807 6.09375C24.5208 6.09375 26.3432 7.91617 26.3432 10.1562C26.3432 12.3963 24.5208 14.2188 22.2807 14.2188C20.0406 14.2188 18.2182 12.3963 18.2182 10.1562C18.2182 7.91617 20.0406 6.09375 22.2807 6.09375Z" fill="white"/>
</svg>
