<?xml version="1.0" encoding="utf-8"?>
<!-- Generator: Adobe Illustrator 24.1.1, SVG Export Plug-In . SVG Version: 6.00 Build 0)  -->
<svg version="1.1" id="Layer_1" xmlns="http://www.w3.org/2000/svg" xmlns:xlink="http://www.w3.org/1999/xlink" x="0px" y="0px"
	 viewBox="0 0 1919 457" style="enable-background:new 0 0 1919 457;" xml:space="preserve">
<style type="text/css">
	.st0{fill:#7449D8;}
	.st1{fill:none;stroke:#F8DD23;stroke-width:5;}
	.st2{clip-path:url(#SVGID_2_);}
	.st3{fill:#F8DD23;}
	.st4{clip-path:url(#SVGID_4_);}
	.st5{fill:#FFFFFF;filter:url(#Adobe_OpacityMaskFilter);}
	.st6{mask:url(#path-257-inside-1_2_);fill:#F8DD1F;}
	.st7{fill:#FFFFFF;filter:url(#Adobe_OpacityMaskFilter_1_);}
	.st8{mask:url(#path-257-inside-1_1_);fill:#F8DD1F;}
</style>
<rect x="-3" y="-1" class="st0" width="1922" height="458"/>
<circle class="st1" cx="1542.5" cy="136.5" r="25"/>
<circle class="st1" cx="538.5" cy="85.5" r="15"/>
<g>
	<defs>
		<rect id="SVGID_1_" x="8" y="10" width="372" height="136"/>
	</defs>
	<clipPath id="SVGID_2_">
		<use xlink:href="#SVGID_1_"  style="overflow:visible;"/>
	</clipPath>
	<g class="st2">
		<circle class="st3" cx="11" cy="13" r="3"/>
		<circle class="st3" cx="326" cy="13" r="3"/>
		<circle class="st3" cx="11" cy="73" r="3"/>
		<circle class="st3" cx="326" cy="73" r="3"/>
		<circle class="st3" cx="11" cy="133" r="3"/>
		<circle class="st3" cx="326" cy="133" r="3"/>
		<circle class="st3" cx="11" cy="33" r="3"/>
		<circle class="st3" cx="326" cy="33" r="3"/>
		<circle class="st3" cx="11" cy="93" r="3"/>
		<circle class="st3" cx="326" cy="93" r="3"/>
		<circle class="st3" cx="11" cy="53" r="3"/>
		<circle class="st3" cx="326" cy="53" r="3"/>
		<circle class="st3" cx="11" cy="113" r="3"/>
		<circle class="st3" cx="326" cy="113" r="3"/>
		<circle class="st3" cx="32" cy="13" r="3"/>
		<circle class="st3" cx="347" cy="13" r="3"/>
		<circle class="st3" cx="32" cy="73" r="3"/>
		<circle class="st3" cx="347" cy="73" r="3"/>
		<circle class="st3" cx="32" cy="133" r="3"/>
		<circle class="st3" cx="347" cy="133" r="3"/>
		<circle class="st3" cx="32" cy="33" r="3"/>
		<circle class="st3" cx="347" cy="33" r="3"/>
		<circle class="st3" cx="32" cy="93" r="3"/>
		<circle class="st3" cx="347" cy="93" r="3"/>
		<circle class="st3" cx="32" cy="53" r="3"/>
		<circle class="st3" cx="347" cy="53" r="3"/>
		<circle class="st3" cx="32" cy="113" r="3"/>
		<circle class="st3" cx="347" cy="113" r="3"/>
		<circle class="st3" cx="53" cy="13" r="3"/>
		<circle class="st3" cx="368" cy="13" r="3"/>
		<circle class="st3" cx="53" cy="73" r="3"/>
		<circle class="st3" cx="368" cy="73" r="3"/>
		<circle class="st3" cx="53" cy="133" r="3"/>
		<circle class="st3" cx="368" cy="133" r="3"/>
		<circle class="st3" cx="53" cy="33" r="3"/>
		<circle class="st3" cx="368" cy="33" r="3"/>
		<circle class="st3" cx="53" cy="93" r="3"/>
		<circle class="st3" cx="368" cy="93" r="3"/>
		<circle class="st3" cx="53" cy="53" r="3"/>
		<circle class="st3" cx="368" cy="53" r="3"/>
		<circle class="st3" cx="53" cy="113" r="3"/>
		<circle class="st3" cx="368" cy="113" r="3"/>
		<circle class="st3" cx="74" cy="13" r="3"/>
		<circle class="st3" cx="74" cy="73" r="3"/>
		<circle class="st3" cx="74" cy="133" r="3"/>
		<circle class="st3" cx="74" cy="33" r="3"/>
		<circle class="st3" cx="74" cy="93" r="3"/>
		<circle class="st3" cx="74" cy="53" r="3"/>
		<circle class="st3" cx="74" cy="113" r="3"/>
		<circle class="st3" cx="95" cy="13" r="3"/>
		<circle class="st3" cx="95" cy="73" r="3"/>
		<circle class="st3" cx="95" cy="133" r="3"/>
		<circle class="st3" cx="95" cy="33" r="3"/>
		<circle class="st3" cx="95" cy="93" r="3"/>
		<circle class="st3" cx="95" cy="53" r="3"/>
		<circle class="st3" cx="95" cy="113" r="3"/>
		<circle class="st3" cx="116" cy="13" r="3"/>
		<circle class="st3" cx="116" cy="73" r="3"/>
		<circle class="st3" cx="116" cy="133" r="3"/>
		<circle class="st3" cx="116" cy="33" r="3"/>
		<circle class="st3" cx="116" cy="93" r="3"/>
		<circle class="st3" cx="116" cy="53" r="3"/>
		<circle class="st3" cx="116" cy="113" r="3"/>
		<circle class="st3" cx="137" cy="13" r="3"/>
		<circle class="st3" cx="137" cy="73" r="3"/>
		<circle class="st3" cx="137" cy="133" r="3"/>
		<circle class="st3" cx="137" cy="33" r="3"/>
		<circle class="st3" cx="137" cy="93" r="3"/>
		<circle class="st3" cx="137" cy="53" r="3"/>
		<circle class="st3" cx="137" cy="113" r="3"/>
		<circle class="st3" cx="158" cy="13" r="3"/>
		<circle class="st3" cx="158" cy="73" r="3"/>
		<circle class="st3" cx="158" cy="133" r="3"/>
		<circle class="st3" cx="158" cy="33" r="3"/>
		<circle class="st3" cx="158" cy="93" r="3"/>
		<circle class="st3" cx="158" cy="53" r="3"/>
		<circle class="st3" cx="158" cy="113" r="3"/>
		<circle class="st3" cx="179" cy="13" r="3"/>
		<circle class="st3" cx="179" cy="73" r="3"/>
		<circle class="st3" cx="179" cy="133" r="3"/>
		<circle class="st3" cx="179" cy="33" r="3"/>
		<circle class="st3" cx="179" cy="93" r="3"/>
		<circle class="st3" cx="179" cy="53" r="3"/>
		<circle class="st3" cx="179" cy="113" r="3"/>
		<circle class="st3" cx="200" cy="13" r="3"/>
		<circle class="st3" cx="200" cy="73" r="3"/>
		<circle class="st3" cx="200" cy="133" r="3"/>
		<circle class="st3" cx="200" cy="33" r="3"/>
		<circle class="st3" cx="200" cy="93" r="3"/>
		<circle class="st3" cx="200" cy="53" r="3"/>
		<circle class="st3" cx="200" cy="113" r="3"/>
		<circle class="st3" cx="221" cy="13" r="3"/>
		<circle class="st3" cx="221" cy="73" r="3"/>
		<circle class="st3" cx="221" cy="133" r="3"/>
		<circle class="st3" cx="221" cy="33" r="3"/>
		<circle class="st3" cx="221" cy="93" r="3"/>
		<circle class="st3" cx="221" cy="53" r="3"/>
		<circle class="st3" cx="221" cy="113" r="3"/>
		<circle class="st3" cx="242" cy="13" r="3"/>
		<circle class="st3" cx="242" cy="73" r="3"/>
		<circle class="st3" cx="242" cy="133" r="3"/>
		<circle class="st3" cx="242" cy="33" r="3"/>
		<circle class="st3" cx="242" cy="93" r="3"/>
		<circle class="st3" cx="242" cy="53" r="3"/>
		<circle class="st3" cx="242" cy="113" r="3"/>
		<circle class="st3" cx="263" cy="13" r="3"/>
		<circle class="st3" cx="263" cy="73" r="3"/>
		<circle class="st3" cx="263" cy="133" r="3"/>
		<circle class="st3" cx="263" cy="33" r="3"/>
		<circle class="st3" cx="263" cy="93" r="3"/>
		<circle class="st3" cx="263" cy="53" r="3"/>
		<circle class="st3" cx="263" cy="113" r="3"/>
		<circle class="st3" cx="284" cy="13" r="3"/>
		<circle class="st3" cx="284" cy="73" r="3"/>
		<circle class="st3" cx="284" cy="133" r="3"/>
		<circle class="st3" cx="284" cy="33" r="3"/>
		<circle class="st3" cx="284" cy="93" r="3"/>
		<circle class="st3" cx="284" cy="53" r="3"/>
		<circle class="st3" cx="284" cy="113" r="3"/>
		<circle class="st3" cx="305" cy="13" r="3"/>
		<circle class="st3" cx="305" cy="73" r="3"/>
		<circle class="st3" cx="305" cy="133" r="3"/>
		<circle class="st3" cx="305" cy="33" r="3"/>
		<circle class="st3" cx="305" cy="93" r="3"/>
		<circle class="st3" cx="305" cy="53" r="3"/>
		<circle class="st3" cx="305" cy="113" r="3"/>
	</g>
</g>
<g>
	<defs>
		<rect id="SVGID_3_" x="1546" y="321" width="370" height="136"/>
	</defs>
	<clipPath id="SVGID_4_">
		<use xlink:href="#SVGID_3_"  style="overflow:visible;"/>
	</clipPath>
	<g class="st4">
		<circle class="st3" cx="1549" cy="324" r="3"/>
		<circle class="st3" cx="1864" cy="324" r="3"/>
		<circle class="st3" cx="1549" cy="384" r="3"/>
		<circle class="st3" cx="1864" cy="384" r="3"/>
		<circle class="st3" cx="1549" cy="444" r="3"/>
		<circle class="st3" cx="1864" cy="444" r="3"/>
		<circle class="st3" cx="1549" cy="344" r="3"/>
		<circle class="st3" cx="1864" cy="344" r="3"/>
		<circle class="st3" cx="1549" cy="404" r="3"/>
		<circle class="st3" cx="1864" cy="404" r="3"/>
		<circle class="st3" cx="1549" cy="364" r="3"/>
		<circle class="st3" cx="1864" cy="364" r="3"/>
		<circle class="st3" cx="1549" cy="424" r="3"/>
		<circle class="st3" cx="1864" cy="424" r="3"/>
		<circle class="st3" cx="1570" cy="324" r="3"/>
		<circle class="st3" cx="1885" cy="324" r="3"/>
		<circle class="st3" cx="1570" cy="384" r="3"/>
		<circle class="st3" cx="1885" cy="384" r="3"/>
		<circle class="st3" cx="1570" cy="444" r="3"/>
		<circle class="st3" cx="1885" cy="444" r="3"/>
		<circle class="st3" cx="1570" cy="344" r="3"/>
		<circle class="st3" cx="1885" cy="344" r="3"/>
		<circle class="st3" cx="1570" cy="404" r="3"/>
		<circle class="st3" cx="1885" cy="404" r="3"/>
		<circle class="st3" cx="1570" cy="364" r="3"/>
		<circle class="st3" cx="1885" cy="364" r="3"/>
		<circle class="st3" cx="1570" cy="424" r="3"/>
		<circle class="st3" cx="1885" cy="424" r="3"/>
		<circle class="st3" cx="1591" cy="324" r="3"/>
		<circle class="st3" cx="1906" cy="324" r="3"/>
		<circle class="st3" cx="1591" cy="384" r="3"/>
		<circle class="st3" cx="1906" cy="384" r="3"/>
		<circle class="st3" cx="1591" cy="444" r="3"/>
		<circle class="st3" cx="1906" cy="444" r="3"/>
		<circle class="st3" cx="1591" cy="344" r="3"/>
		<circle class="st3" cx="1906" cy="344" r="3"/>
		<circle class="st3" cx="1591" cy="404" r="3"/>
		<circle class="st3" cx="1906" cy="404" r="3"/>
		<circle class="st3" cx="1591" cy="364" r="3"/>
		<circle class="st3" cx="1906" cy="364" r="3"/>
		<circle class="st3" cx="1591" cy="424" r="3"/>
		<circle class="st3" cx="1906" cy="424" r="3"/>
		<circle class="st3" cx="1612" cy="324" r="3"/>
		<circle class="st3" cx="1612" cy="384" r="3"/>
		<circle class="st3" cx="1612" cy="444" r="3"/>
		<circle class="st3" cx="1612" cy="344" r="3"/>
		<circle class="st3" cx="1612" cy="404" r="3"/>
		<circle class="st3" cx="1612" cy="364" r="3"/>
		<circle class="st3" cx="1612" cy="424" r="3"/>
		<circle class="st3" cx="1633" cy="324" r="3"/>
		<circle class="st3" cx="1633" cy="384" r="3"/>
		<circle class="st3" cx="1633" cy="444" r="3"/>
		<circle class="st3" cx="1633" cy="344" r="3"/>
		<circle class="st3" cx="1633" cy="404" r="3"/>
		<circle class="st3" cx="1633" cy="364" r="3"/>
		<circle class="st3" cx="1633" cy="424" r="3"/>
		<circle class="st3" cx="1654" cy="324" r="3"/>
		<circle class="st3" cx="1654" cy="384" r="3"/>
		<circle class="st3" cx="1654" cy="444" r="3"/>
		<circle class="st3" cx="1654" cy="344" r="3"/>
		<circle class="st3" cx="1654" cy="404" r="3"/>
		<circle class="st3" cx="1654" cy="364" r="3"/>
		<circle class="st3" cx="1654" cy="424" r="3"/>
		<circle class="st3" cx="1675" cy="324" r="3"/>
		<circle class="st3" cx="1675" cy="384" r="3"/>
		<circle class="st3" cx="1675" cy="444" r="3"/>
		<circle class="st3" cx="1675" cy="344" r="3"/>
		<circle class="st3" cx="1675" cy="404" r="3"/>
		<circle class="st3" cx="1675" cy="364" r="3"/>
		<circle class="st3" cx="1675" cy="424" r="3"/>
		<circle class="st3" cx="1696" cy="324" r="3"/>
		<circle class="st3" cx="1696" cy="384" r="3"/>
		<circle class="st3" cx="1696" cy="444" r="3"/>
		<circle class="st3" cx="1696" cy="344" r="3"/>
		<circle class="st3" cx="1696" cy="404" r="3"/>
		<circle class="st3" cx="1696" cy="364" r="3"/>
		<circle class="st3" cx="1696" cy="424" r="3"/>
		<circle class="st3" cx="1717" cy="324" r="3"/>
		<circle class="st3" cx="1717" cy="384" r="3"/>
		<circle class="st3" cx="1717" cy="444" r="3"/>
		<circle class="st3" cx="1717" cy="344" r="3"/>
		<circle class="st3" cx="1717" cy="404" r="3"/>
		<circle class="st3" cx="1717" cy="364" r="3"/>
		<circle class="st3" cx="1717" cy="424" r="3"/>
		<circle class="st3" cx="1738" cy="324" r="3"/>
		<circle class="st3" cx="1738" cy="384" r="3"/>
		<circle class="st3" cx="1738" cy="444" r="3"/>
		<circle class="st3" cx="1738" cy="344" r="3"/>
		<circle class="st3" cx="1738" cy="404" r="3"/>
		<circle class="st3" cx="1738" cy="364" r="3"/>
		<circle class="st3" cx="1738" cy="424" r="3"/>
		<circle class="st3" cx="1759" cy="324" r="3"/>
		<circle class="st3" cx="1759" cy="384" r="3"/>
		<circle class="st3" cx="1759" cy="444" r="3"/>
		<circle class="st3" cx="1759" cy="344" r="3"/>
		<circle class="st3" cx="1759" cy="404" r="3"/>
		<circle class="st3" cx="1759" cy="364" r="3"/>
		<circle class="st3" cx="1759" cy="424" r="3"/>
		<circle class="st3" cx="1780" cy="324" r="3"/>
		<circle class="st3" cx="1780" cy="384" r="3"/>
		<circle class="st3" cx="1780" cy="444" r="3"/>
		<circle class="st3" cx="1780" cy="344" r="3"/>
		<circle class="st3" cx="1780" cy="404" r="3"/>
		<circle class="st3" cx="1780" cy="364" r="3"/>
		<circle class="st3" cx="1780" cy="424" r="3"/>
		<circle class="st3" cx="1801" cy="324" r="3"/>
		<circle class="st3" cx="1801" cy="384" r="3"/>
		<circle class="st3" cx="1801" cy="444" r="3"/>
		<circle class="st3" cx="1801" cy="344" r="3"/>
		<circle class="st3" cx="1801" cy="404" r="3"/>
		<circle class="st3" cx="1801" cy="364" r="3"/>
		<circle class="st3" cx="1801" cy="424" r="3"/>
		<circle class="st3" cx="1822" cy="324" r="3"/>
		<circle class="st3" cx="1822" cy="384" r="3"/>
		<circle class="st3" cx="1822" cy="444" r="3"/>
		<circle class="st3" cx="1822" cy="344" r="3"/>
		<circle class="st3" cx="1822" cy="404" r="3"/>
		<circle class="st3" cx="1822" cy="364" r="3"/>
		<circle class="st3" cx="1822" cy="424" r="3"/>
		<circle class="st3" cx="1843" cy="324" r="3"/>
		<circle class="st3" cx="1843" cy="384" r="3"/>
		<circle class="st3" cx="1843" cy="444" r="3"/>
		<circle class="st3" cx="1843" cy="344" r="3"/>
		<circle class="st3" cx="1843" cy="404" r="3"/>
		<circle class="st3" cx="1843" cy="364" r="3"/>
		<circle class="st3" cx="1843" cy="424" r="3"/>
	</g>
</g>
<circle class="st1" cx="317.5" cy="342.5" r="31"/>
<defs>
	<filter id="Adobe_OpacityMaskFilter" filterUnits="userSpaceOnUse" x="-4.7" y="216" width="130.7" height="242.7">
		<feColorMatrix  type="matrix" values="1 0 0 0 0  0 1 0 0 0  0 0 1 0 0  0 0 0 1 0"/>
	</filter>
</defs>
<mask maskUnits="userSpaceOnUse" x="-4.7" y="216" width="130.7" height="242.7" id="path-257-inside-1_2_">
	<path class="st5" d="M121,545c0,0.6-0.4,1-1,1H62C6.8,546-38,501.2-38,446V300.5c0-43.9,35.6-79.5,79.5-79.5s79.5,35.6,79.5,79.5
		V545z"/>
</mask>
<path class="st6" d="M116,457.6c0.9,0,1.8,0,2.7,0.2c0.6,0.1,1.1,0.3,1.6,0.4c0,0,0,0,0,0c0.7-0.1,1.5-0.1,2.2,0.1h1.4
	c0.7,0,1.4,0.2,2,0.4V300.5c0-46.6-37.9-84.5-84.5-84.5c-17,0-32.9,5.1-46.2,13.8c0.9,0.9,1.4,2.1,1.4,3.5v7.7
	c12.5-9.4,28-15,44.8-15c41.1,0,74.5,33.4,74.5,74.5V457.6z"/>
<defs>
	<filter id="Adobe_OpacityMaskFilter_1_" filterUnits="userSpaceOnUse" x="1789.3" y="-1" width="130.7" height="242.7">
		<feColorMatrix  type="matrix" values="1 0 0 0 0  0 1 0 0 0  0 0 1 0 0  0 0 0 1 0"/>
	</filter>
</defs>
<mask maskUnits="userSpaceOnUse" x="1789.3" y="-1" width="130.7" height="242.7" id="path-257-inside-1_1_">
	<path class="st7" d="M1794.3-87.3c0-0.6,0.4-1,1-1h58c55.2,0,100,44.8,100,100v145.5c0,43.9-35.6,79.5-79.5,79.5
		c-43.9,0-79.5-35.6-79.5-79.5V-87.3z"/>
</mask>
<path class="st8" d="M1799.3,0.2c-0.9,0-1.8,0-2.7-0.2c-0.6-0.1-1.1-0.3-1.6-0.4c0,0,0,0,0,0c-0.7,0.1-1.5,0.1-2.2-0.1h-1.4
	c-0.7,0-1.4-0.2-2-0.4v158.2c0,46.6,37.9,84.5,84.5,84.5c17,0,32.9-5.1,46.2-13.8c-0.9-0.9-1.4-2.1-1.4-3.5v-7.7
	c-12.5,9.4-28,15-44.8,15c-41.1,0-74.5-33.4-74.5-74.5V0.2z"/>
</svg>
