<svg width="321" height="243" viewBox="0 0 321 243" fill="none" xmlns="http://www.w3.org/2000/svg">
<g clip-path="url(#clip0)">
<circle cx="3" cy="3" r="3" fill="#7449D8"/>
<circle cx="318" cy="3" r="3" fill="#7449D8"/>
<circle cx="3" cy="243" r="3" fill="#7449D8"/>
<circle cx="318" cy="243" r="3" fill="#7449D8"/>
<circle cx="3" cy="63" r="3" fill="#7449D8"/>
<circle cx="318" cy="63" r="3" fill="#7449D8"/>
<circle cx="3" cy="123" r="3" fill="#7449D8"/>
<circle cx="318" cy="123" r="3" fill="#7449D8"/>
<circle cx="3" cy="183" r="3" fill="#7449D8"/>
<circle cx="318" cy="183" r="3" fill="#7449D8"/>
<circle cx="3" cy="23" r="3" fill="#7449D8"/>
<circle cx="318" cy="23" r="3" fill="#7449D8"/>
<circle cx="3" cy="83" r="3" fill="#7449D8"/>
<circle cx="318" cy="83" r="3" fill="#7449D8"/>
<circle cx="3" cy="143" r="3" fill="#7449D8"/>
<circle cx="318" cy="143" r="3" fill="#7449D8"/>
<circle cx="3" cy="203" r="3" fill="#7449D8"/>
<circle cx="318" cy="203" r="3" fill="#7449D8"/>
<circle cx="3" cy="43" r="3" fill="#7449D8"/>
<circle cx="318" cy="43" r="3" fill="#7449D8"/>
<circle cx="3" cy="103" r="3" fill="#7449D8"/>
<circle cx="318" cy="103" r="3" fill="#7449D8"/>
<circle cx="3" cy="163" r="3" fill="#7449D8"/>
<circle cx="318" cy="163" r="3" fill="#7449D8"/>
<circle cx="3" cy="223" r="3" fill="#7449D8"/>
<circle cx="318" cy="223" r="3" fill="#7449D8"/>
<circle cx="24" cy="3" r="3" fill="#7449D8"/>
<circle cx="24" cy="243" r="3" fill="#7449D8"/>
<circle cx="24" cy="63" r="3" fill="#7449D8"/>
<circle cx="24" cy="123" r="3" fill="#7449D8"/>
<circle cx="24" cy="183" r="3" fill="#7449D8"/>
<circle cx="24" cy="23" r="3" fill="#7449D8"/>
<circle cx="24" cy="83" r="3" fill="#7449D8"/>
<circle cx="24" cy="143" r="3" fill="#7449D8"/>
<circle cx="24" cy="203" r="3" fill="#7449D8"/>
<circle cx="24" cy="43" r="3" fill="#7449D8"/>
<circle cx="24" cy="103" r="3" fill="#7449D8"/>
<circle cx="24" cy="163" r="3" fill="#7449D8"/>
<circle cx="24" cy="223" r="3" fill="#7449D8"/>
<circle cx="45" cy="3" r="3" fill="#7449D8"/>
<circle cx="45" cy="243" r="3" fill="#7449D8"/>
<circle cx="45" cy="63" r="3" fill="#7449D8"/>
<circle cx="45" cy="123" r="3" fill="#7449D8"/>
<circle cx="45" cy="183" r="3" fill="#7449D8"/>
<circle cx="45" cy="23" r="3" fill="#7449D8"/>
<circle cx="45" cy="83" r="3" fill="#7449D8"/>
<circle cx="45" cy="143" r="3" fill="#7449D8"/>
<circle cx="45" cy="203" r="3" fill="#7449D8"/>
<circle cx="45" cy="43" r="3" fill="#7449D8"/>
<circle cx="45" cy="103" r="3" fill="#7449D8"/>
<circle cx="45" cy="163" r="3" fill="#7449D8"/>
<circle cx="45" cy="223" r="3" fill="#7449D8"/>
<circle cx="66" cy="3" r="3" fill="#7449D8"/>
<circle cx="66" cy="243" r="3" fill="#7449D8"/>
<circle cx="66" cy="63" r="3" fill="#7449D8"/>
<circle cx="66" cy="123" r="3" fill="#7449D8"/>
<circle cx="66" cy="183" r="3" fill="#7449D8"/>
<circle cx="66" cy="23" r="3" fill="#7449D8"/>
<circle cx="66" cy="83" r="3" fill="#7449D8"/>
<circle cx="66" cy="143" r="3" fill="#7449D8"/>
<circle cx="66" cy="203" r="3" fill="#7449D8"/>
<circle cx="66" cy="43" r="3" fill="#7449D8"/>
<circle cx="66" cy="103" r="3" fill="#7449D8"/>
<circle cx="66" cy="163" r="3" fill="#7449D8"/>
<circle cx="66" cy="223" r="3" fill="#7449D8"/>
<circle cx="87" cy="3" r="3" fill="#7449D8"/>
<circle cx="87" cy="243" r="3" fill="#7449D8"/>
<circle cx="87" cy="63" r="3" fill="#7449D8"/>
<circle cx="87" cy="123" r="3" fill="#7449D8"/>
<circle cx="87" cy="183" r="3" fill="#7449D8"/>
<circle cx="87" cy="23" r="3" fill="#7449D8"/>
<circle cx="87" cy="83" r="3" fill="#7449D8"/>
<circle cx="87" cy="143" r="3" fill="#7449D8"/>
<circle cx="87" cy="203" r="3" fill="#7449D8"/>
<circle cx="87" cy="43" r="3" fill="#7449D8"/>
<circle cx="87" cy="103" r="3" fill="#7449D8"/>
<circle cx="87" cy="163" r="3" fill="#7449D8"/>
<circle cx="87" cy="223" r="3" fill="#7449D8"/>
<circle cx="108" cy="3" r="3" fill="#7449D8"/>
<circle cx="108" cy="243" r="3" fill="#7449D8"/>
<circle cx="108" cy="63" r="3" fill="#7449D8"/>
<circle cx="108" cy="123" r="3" fill="#7449D8"/>
<circle cx="108" cy="183" r="3" fill="#7449D8"/>
<circle cx="108" cy="23" r="3" fill="#7449D8"/>
<circle cx="108" cy="83" r="3" fill="#7449D8"/>
<circle cx="108" cy="143" r="3" fill="#7449D8"/>
<circle cx="108" cy="203" r="3" fill="#7449D8"/>
<circle cx="108" cy="43" r="3" fill="#7449D8"/>
<circle cx="108" cy="103" r="3" fill="#7449D8"/>
<circle cx="108" cy="163" r="3" fill="#7449D8"/>
<circle cx="108" cy="223" r="3" fill="#7449D8"/>
<circle cx="129" cy="3" r="3" fill="#7449D8"/>
<circle cx="129" cy="243" r="3" fill="#7449D8"/>
<circle cx="129" cy="63" r="3" fill="#7449D8"/>
<circle cx="129" cy="123" r="3" fill="#7449D8"/>
<circle cx="129" cy="183" r="3" fill="#7449D8"/>
<circle cx="129" cy="23" r="3" fill="#7449D8"/>
<circle cx="129" cy="83" r="3" fill="#7449D8"/>
<circle cx="129" cy="143" r="3" fill="#7449D8"/>
<circle cx="129" cy="203" r="3" fill="#7449D8"/>
<circle cx="129" cy="43" r="3" fill="#7449D8"/>
<circle cx="129" cy="103" r="3" fill="#7449D8"/>
<circle cx="129" cy="163" r="3" fill="#7449D8"/>
<circle cx="129" cy="223" r="3" fill="#7449D8"/>
<circle cx="150" cy="3" r="3" fill="#7449D8"/>
<circle cx="150" cy="243" r="3" fill="#7449D8"/>
<circle cx="150" cy="63" r="3" fill="#7449D8"/>
<circle cx="150" cy="123" r="3" fill="#7449D8"/>
<circle cx="150" cy="183" r="3" fill="#7449D8"/>
<circle cx="150" cy="23" r="3" fill="#7449D8"/>
<circle cx="150" cy="83" r="3" fill="#7449D8"/>
<circle cx="150" cy="143" r="3" fill="#7449D8"/>
<circle cx="150" cy="203" r="3" fill="#7449D8"/>
<circle cx="150" cy="43" r="3" fill="#7449D8"/>
<circle cx="150" cy="103" r="3" fill="#7449D8"/>
<circle cx="150" cy="163" r="3" fill="#7449D8"/>
<circle cx="150" cy="223" r="3" fill="#7449D8"/>
<circle cx="171" cy="3" r="3" fill="#7449D8"/>
<circle cx="171" cy="243" r="3" fill="#7449D8"/>
<circle cx="171" cy="63" r="3" fill="#7449D8"/>
<circle cx="171" cy="123" r="3" fill="#7449D8"/>
<circle cx="171" cy="183" r="3" fill="#7449D8"/>
<circle cx="171" cy="23" r="3" fill="#7449D8"/>
<circle cx="171" cy="83" r="3" fill="#7449D8"/>
<circle cx="171" cy="143" r="3" fill="#7449D8"/>
<circle cx="171" cy="203" r="3" fill="#7449D8"/>
<circle cx="171" cy="43" r="3" fill="#7449D8"/>
<circle cx="171" cy="103" r="3" fill="#7449D8"/>
<circle cx="171" cy="163" r="3" fill="#7449D8"/>
<circle cx="171" cy="223" r="3" fill="#7449D8"/>
<circle cx="192" cy="3" r="3" fill="#7449D8"/>
<circle cx="192" cy="243" r="3" fill="#7449D8"/>
<circle cx="192" cy="63" r="3" fill="#7449D8"/>
<circle cx="192" cy="123" r="3" fill="#7449D8"/>
<circle cx="192" cy="183" r="3" fill="#7449D8"/>
<circle cx="192" cy="23" r="3" fill="#7449D8"/>
<circle cx="192" cy="83" r="3" fill="#7449D8"/>
<circle cx="192" cy="143" r="3" fill="#7449D8"/>
<circle cx="192" cy="203" r="3" fill="#7449D8"/>
<circle cx="192" cy="43" r="3" fill="#7449D8"/>
<circle cx="192" cy="103" r="3" fill="#7449D8"/>
<circle cx="192" cy="163" r="3" fill="#7449D8"/>
<circle cx="192" cy="223" r="3" fill="#7449D8"/>
<circle cx="213" cy="3" r="3" fill="#7449D8"/>
<circle cx="213" cy="243" r="3" fill="#7449D8"/>
<circle cx="213" cy="63" r="3" fill="#7449D8"/>
<circle cx="213" cy="123" r="3" fill="#7449D8"/>
<circle cx="213" cy="183" r="3" fill="#7449D8"/>
<circle cx="213" cy="23" r="3" fill="#7449D8"/>
<circle cx="213" cy="83" r="3" fill="#7449D8"/>
<circle cx="213" cy="143" r="3" fill="#7449D8"/>
<circle cx="213" cy="203" r="3" fill="#7449D8"/>
<circle cx="213" cy="43" r="3" fill="#7449D8"/>
<circle cx="213" cy="103" r="3" fill="#7449D8"/>
<circle cx="213" cy="163" r="3" fill="#7449D8"/>
<circle cx="213" cy="223" r="3" fill="#7449D8"/>
<circle cx="234" cy="3" r="3" fill="#7449D8"/>
<circle cx="234" cy="243" r="3" fill="#7449D8"/>
<circle cx="234" cy="63" r="3" fill="#7449D8"/>
<circle cx="234" cy="123" r="3" fill="#7449D8"/>
<circle cx="234" cy="183" r="3" fill="#7449D8"/>
<circle cx="234" cy="23" r="3" fill="#7449D8"/>
<circle cx="234" cy="83" r="3" fill="#7449D8"/>
<circle cx="234" cy="143" r="3" fill="#7449D8"/>
<circle cx="234" cy="203" r="3" fill="#7449D8"/>
<circle cx="234" cy="43" r="3" fill="#7449D8"/>
<circle cx="234" cy="103" r="3" fill="#7449D8"/>
<circle cx="234" cy="163" r="3" fill="#7449D8"/>
<circle cx="234" cy="223" r="3" fill="#7449D8"/>
<circle cx="255" cy="3" r="3" fill="#7449D8"/>
<circle cx="255" cy="243" r="3" fill="#7449D8"/>
<circle cx="255" cy="63" r="3" fill="#7449D8"/>
<circle cx="255" cy="123" r="3" fill="#7449D8"/>
<circle cx="255" cy="183" r="3" fill="#7449D8"/>
<circle cx="255" cy="23" r="3" fill="#7449D8"/>
<circle cx="255" cy="83" r="3" fill="#7449D8"/>
<circle cx="255" cy="143" r="3" fill="#7449D8"/>
<circle cx="255" cy="203" r="3" fill="#7449D8"/>
<circle cx="255" cy="43" r="3" fill="#7449D8"/>
<circle cx="255" cy="103" r="3" fill="#7449D8"/>
<circle cx="255" cy="163" r="3" fill="#7449D8"/>
<circle cx="255" cy="223" r="3" fill="#7449D8"/>
<circle cx="276" cy="3" r="3" fill="#7449D8"/>
<circle cx="276" cy="243" r="3" fill="#7449D8"/>
<circle cx="276" cy="63" r="3" fill="#7449D8"/>
<circle cx="276" cy="123" r="3" fill="#7449D8"/>
<circle cx="276" cy="183" r="3" fill="#7449D8"/>
<circle cx="276" cy="23" r="3" fill="#7449D8"/>
<circle cx="276" cy="83" r="3" fill="#7449D8"/>
<circle cx="276" cy="143" r="3" fill="#7449D8"/>
<circle cx="276" cy="203" r="3" fill="#7449D8"/>
<circle cx="276" cy="43" r="3" fill="#7449D8"/>
<circle cx="276" cy="103" r="3" fill="#7449D8"/>
<circle cx="276" cy="163" r="3" fill="#7449D8"/>
<circle cx="276" cy="223" r="3" fill="#7449D8"/>
<circle cx="297" cy="3" r="3" fill="#7449D8"/>
<circle cx="297" cy="243" r="3" fill="#7449D8"/>
<circle cx="297" cy="63" r="3" fill="#7449D8"/>
<circle cx="297" cy="123" r="3" fill="#7449D8"/>
<circle cx="297" cy="183" r="3" fill="#7449D8"/>
<circle cx="297" cy="23" r="3" fill="#7449D8"/>
<circle cx="297" cy="83" r="3" fill="#7449D8"/>
<circle cx="297" cy="143" r="3" fill="#7449D8"/>
<circle cx="297" cy="203" r="3" fill="#7449D8"/>
<circle cx="297" cy="43" r="3" fill="#7449D8"/>
<circle cx="297" cy="103" r="3" fill="#7449D8"/>
<circle cx="297" cy="163" r="3" fill="#7449D8"/>
<circle cx="297" cy="223" r="3" fill="#7449D8"/>
</g>
<defs>
<clipPath id="clip0">
<rect width="321" height="243" fill="white"/>
</clipPath>
</defs>
</svg>
